<?xml version="1.0" encoding="UTF-8"?>
<!-- Generator: Adobe Illustrator 28.0.0, SVG Export Plug-In . SVG Version: 6.00 Build 0)  -->
<svg xmlns="http://www.w3.org/2000/svg" xmlns:xlink="http://www.w3.org/1999/xlink" version="1.1" id="Layer_1" x="0px" y="0px" viewBox="0 0 369 141" style="enable-background:new 0 0 369 141;" xml:space="preserve">
<style type="text/css">
	.st0{fill:#004F5D;}
	.st1{fill:none;stroke:#083744;stroke-width:4.3485;stroke-miterlimit:10;}
	.st2{fill:#FFFFFF;}
	.st3{fill:#CCE32F;}
	.st4{fill:#083744;}
	.st5{fill:none;stroke:#083744;stroke-width:4.3485;stroke-linecap:round;stroke-miterlimit:10;}
	.st6{fill-rule:evenodd;clip-rule:evenodd;fill:none;stroke:#083744;stroke-width:4.3485;stroke-miterlimit:10;}
	.st7{fill:#083844;}
	.st8{fill:#FFFFFF;stroke:#083744;stroke-width:3.9239;stroke-linecap:square;stroke-miterlimit:10;}
	.st9{fill:none;stroke:#083744;stroke-width:3.9239;stroke-linecap:square;stroke-miterlimit:10;}
	.st10{fill:#FFFFFF;stroke:#FFFFFF;stroke-width:0.4461;stroke-miterlimit:10;}
</style>
<g>
	<g>
		<g>
			<path class="st1" d="M214.3,92.2c0,3.6-2.9,6.5-6.5,6.5h-43.5c-0.4,0-0.7,0.1-1,0.4l-9.9,9.9c-0.1,0.1-0.2,0-0.2-0.1v-8.8     c0-0.8-0.6-1.4-1.4-1.4h-8.3c-3.6,0-6.5-2.9-6.5-6.5V48.2c0-3.6,2.9-6.5,6.5-6.5h64.2c3.6,0,6.5,2.9,6.5,6.5L214.3,92.2z"></path>
		</g>
		<line class="st5" x1="152.8" y1="57.7" x2="198.3" y2="57.7"></line>
		<line class="st5" x1="152.8" y1="70.5" x2="198.3" y2="70.5"></line>
		<line class="st5" x1="152.8" y1="83.3" x2="185.2" y2="83.3"></line>
	</g>
	<circle class="st1" cx="71.3" cy="73.4" r="35.6"></circle>
	<path class="st6" d="M302.2,55.6L291,28.3c-0.1-0.3-0.5-0.3-0.6,0l-11.1,27.2c-0.2,0.6-0.7,1-1.4,1.1l-29.4,2.2   c-0.3,0-0.4,0.4-0.2,0.6l22.5,19.1c0.4,0.4,0.7,1,0.5,1.6l-7,28.7c-0.1,0.3,0.3,0.5,0.5,0.4l25.1-15.5c0.5-0.3,1.1-0.3,1.7,0   l25.1,15.5c0.3,0.2,0.6-0.1,0.5-0.4l-7-28.6c-0.2-0.6,0-1.2,0.5-1.6l22.5-19.1c0.2-0.2,0.1-0.6-0.2-0.6l-29.4-2.2   C302.9,56.6,302.4,56.2,302.2,55.6L302.2,55.6z"></path>
	<g>
		<path class="st4" d="M63,65.1c0,2.3-1.9,4.2-4.2,4.2c-2.3,0-4.2-1.9-4.2-4.2c0-2.3,1.9-4.2,4.2-4.2C61.1,60.9,63,62.7,63,65.1"></path>
		<path class="st4" d="M88,65.1c0,2.3-1.9,4.2-4.2,4.2c-2.3,0-4.2-1.9-4.2-4.2c0-2.3,1.9-4.2,4.2-4.2C86.2,60.9,88,62.7,88,65.1"></path>
		<path class="st4" d="M52.2,84.2c-0.5-0.5-0.7-1.3-0.5-2c0.2-0.7,0.8-1.3,1.5-1.5c0.7-0.2,1.5,0,2,0.5c4.3,4.3,10.1,6.7,16.2,6.7    s11.9-2.4,16.2-6.7c0.5-0.5,1.3-0.7,2-0.5c0.7,0.2,1.3,0.8,1.5,1.5c0.2,0.7,0,1.5-0.5,2c-5.1,5.1-12,7.9-19.2,7.9    S57.3,89.3,52.2,84.2L52.2,84.2z"></path>
	</g>
	<g>
		<g>
			<g>
				<polygon class="st3" points="112.3,95.6 112.3,79.4 96.1,79.4 96.1,63 112.3,63 112.3,46.8 128.7,46.8 128.7,63 144.9,63       144.9,79.4 128.7,79.4 128.7,95.6     "></polygon>
				<path class="st2" d="M126,49.5v16.2h16.2v11H126v16.2h-11V76.7H98.8v-11h16.2V49.5H126 M131.4,44.1H126h-11h-5.4v5.4v10.8H98.8      h-5.4v5.4v11v5.4h5.4h10.8v10.8v5.4h5.4h11h5.4v-5.4V82.1h10.8h5.4v-5.4v-11v-5.4h-5.4h-10.8V49.5V44.1L131.4,44.1z"></path>
			</g>
		</g>
	</g>
	<g>
		<g>
			<g>
				<polygon class="st3" points="222.3,95.6 222.3,79.4 206.1,79.4 206.1,63 222.3,63 222.3,46.8 238.8,46.8 238.8,63 254.9,63       254.9,79.4 238.8,79.4 238.8,95.6     "></polygon>
				<path class="st2" d="M236.1,49.5v16.2h16.2v11h-16.2v16.2h-11V76.7h-16.2v-11H225V49.5H236.1 M241.4,44.1h-5.4h-11h-5.4v5.4      v10.8h-10.8h-5.4v5.4v11v5.4h5.4h10.8v10.8v5.4h5.4h11h5.4v-5.4V82.1h10.8h5.4v-5.4v-11v-5.4h-5.4h-10.8V49.5V44.1L241.4,44.1z"></path>
			</g>
		</g>
	</g>
</g>
</svg>
