<?xml version="1.0" encoding="UTF-8"?>
<!-- Generator: Adobe Illustrator 28.0.0, SVG Export Plug-In . SVG Version: 6.00 Build 0)  -->
<svg xmlns="http://www.w3.org/2000/svg" xmlns:xlink="http://www.w3.org/1999/xlink" version="1.1" id="Layer_1" x="0px" y="0px" viewBox="0 0 369 141" style="enable-background:new 0 0 369 141;" xml:space="preserve">
<style type="text/css">
	.st0{fill:#004F5D;}
	.st1{fill:none;stroke:#083744;stroke-width:4.3485;stroke-miterlimit:10;}
	.st2{fill:#FFFFFF;}
	.st3{fill:#CCE32F;}
	.st4{fill:#083744;}
	.st5{fill:none;stroke:#083744;stroke-width:4.3485;stroke-linecap:round;stroke-miterlimit:10;}
	.st6{fill-rule:evenodd;clip-rule:evenodd;fill:none;stroke:#083744;stroke-width:4.3485;stroke-miterlimit:10;}
	.st7{fill:#083844;}
	.st8{fill:#FFFFFF;stroke:#083744;stroke-width:3.9239;stroke-linecap:square;stroke-miterlimit:10;}
	.st9{fill:none;stroke:#083744;stroke-width:3.9239;stroke-linecap:square;stroke-miterlimit:10;}
	.st10{fill:#FFFFFF;stroke:#FFFFFF;stroke-width:0.4461;stroke-miterlimit:10;}
</style>
<g>
	<g>
		<path class="st4" d="M142.2,56.6c-0.3-8.2,2.8-16.2,8.6-21.9c11.4-11.4,30-11.4,41.4,0c4.3,4.3,7.1,9.7,8.1,15.6l3.1-0.5    c-1.2-6.6-4.3-12.6-9-17.3c-12.7-12.7-33.2-12.7-45.9,0c-6.4,6.4-9.9,15.3-9.5,24.3L142.2,56.6z"></path>
		<path class="st4" d="M206.8,78.4c-1.5-1.5-4.1-1.5-5.6,0l-2.3,2.3l-3.5-3.5c2.6-2.9,4.7-6.1,6.1-9.7l-2.9-1.2    c-1.5,3.7-3.7,7-6.5,9.8c-11.4,11.4-30,11.4-41.4,0c-1.2-1.2-2.3-2.5-3.3-3.9l-2.6,1.8c1.1,1.5,2.3,3,3.7,4.4    c6.3,6.3,14.6,9.5,22.9,9.5c7.8,0,15.6-2.8,21.8-8.4l3.5,3.5l-2.3,2.3c-0.8,0.8-1.2,1.8-1.2,2.8c0,1.1,0.4,2.1,1.2,2.8l30.6,30.6    c0.8,0.8,1.8,1.2,2.8,1.2c1.1,0,2.1-0.4,2.8-1.2l6.8-6.8c1.6-1.6,1.6-4.1,0-5.6L206.8,78.4z"></path>
		<path class="st4" d="M251.4,18.4c-5.8,0-10.5,4.7-10.5,10.5c0,3,1.3,5.7,3.3,7.6l-11.6,16.2c-1.4-0.6-2.9-1-4.5-1    c-5.1,0-9.4,3.7-10.3,8.6l-32.7-6.3c-0.7-7-6.6-12.5-13.7-12.5c-7.6,0-13.8,6.2-13.8,13.8c0,0.7,0.1,1.5,0.2,2.2l-31.5,13.9    c-1.9-2.8-5.1-4.6-8.7-4.6c-5.8,0-10.5,4.7-10.5,10.5c0,5.8,4.7,10.5,10.5,10.5c5.8,0,10.5-4.7,10.5-10.5c0-1.1-0.2-2.1-0.5-3    l31-13.7c2.1,5,7,8.5,12.7,8.5c7,0,12.7-5.2,13.6-11.9l32.7,6.3c0.7,5.2,5.1,9.2,10.4,9.2c5.8,0,10.5-4.7,10.5-10.5    c0-3.1-1.3-5.8-3.4-7.7l11.6-16.2c1.4,0.7,3,1.1,4.6,1.1c5.8,0,10.5-4.7,10.5-10.5C261.9,23.1,257.2,18.4,251.4,18.4L251.4,18.4z     M117.6,84.7c-4,0-7.3-3.3-7.3-7.3c0-4,3.3-7.3,7.3-7.3c4,0,7.3,3.3,7.3,7.3C124.9,81.4,121.6,84.7,117.6,84.7z M171.4,66    c-5.9,0-10.6-4.8-10.6-10.6c0-5.9,4.8-10.6,10.6-10.6c5.9,0,10.6,4.8,10.6,10.6C182,61.3,177.3,66,171.4,66z M251.4,36.2"></path>
	</g>
	<circle class="st3" cx="171.5" cy="55.5" r="16.8"></circle>
</g>
</svg>
