<?xml version="1.0" encoding="UTF-8"?>
<!-- Generator: Adobe Illustrator 28.0.0, SVG Export Plug-In . SVG Version: 6.00 Build 0)  -->
<svg xmlns="http://www.w3.org/2000/svg" xmlns:xlink="http://www.w3.org/1999/xlink" version="1.1" id="Layer_1" x="0px" y="0px" viewBox="0 0 210 130" style="enable-background:new 0 0 210 130;" xml:space="preserve">
<style type="text/css">
	.st0{fill:#004F5D;}
	.st1{fill:none;stroke:#083744;stroke-width:4.3485;stroke-miterlimit:10;}
	.st2{fill:#FFFFFF;}
	.st3{fill:#CCE32F;}
	.st4{fill:#083744;}
	.st5{fill:none;stroke:#083744;stroke-width:4.3485;stroke-linecap:round;stroke-miterlimit:10;}
	.st6{fill-rule:evenodd;clip-rule:evenodd;fill:none;stroke:#083744;stroke-width:4.3485;stroke-miterlimit:10;}
	.st7{fill:#083844;}
	.st8{fill:#FFFFFF;stroke:#083744;stroke-width:3.9239;stroke-linecap:square;stroke-miterlimit:10;}
	.st9{fill:none;stroke:#083744;stroke-width:3.9239;stroke-linecap:square;stroke-miterlimit:10;}
	.st10{fill:#FFFFFF;stroke:#FFFFFF;stroke-width:0.4461;stroke-miterlimit:10;}
</style>
<g>
	<g>
		<path class="st0" d="M201.8,72.7c0.1-0.1,0.1-0.2,0.2-0.4c0.1-0.1,0.2-0.2,0.4-0.2c0.1-0.1,0.3-0.1,0.5-0.1c0.2,0,0.3,0,0.5,0.1    c0.1,0.1,0.2,0.1,0.4,0.2c0.1,0.1,0.2,0.2,0.2,0.4c0.1,0.1,0.1,0.3,0.1,0.5s-0.1,0.3-0.1,0.5c-0.1,0.1-0.1,0.2-0.2,0.4    s-0.2,0.2-0.4,0.2c-0.1,0.1-0.3,0.1-0.5,0.1c-0.2,0-0.3,0-0.5-0.1c-0.1-0.1-0.2-0.1-0.4-0.2c-0.1-0.1-0.2-0.2-0.2-0.4    c-0.1-0.1-0.1-0.3-0.1-0.5C201.7,73,201.7,72.9,201.8,72.7z M202,73.6c0.1,0.1,0.1,0.2,0.2,0.3c0.1,0.1,0.2,0.2,0.3,0.2    c0.1,0.1,0.2,0.1,0.4,0.1c0.1,0,0.2,0,0.4-0.1c0.1-0.1,0.2-0.1,0.3-0.2c0.1-0.1,0.2-0.2,0.2-0.3c0.1-0.1,0.1-0.2,0.1-0.4    c0-0.1,0-0.2-0.1-0.4c-0.1-0.1-0.1-0.2-0.2-0.3c-0.1-0.1-0.2-0.2-0.3-0.2c-0.1-0.1-0.2-0.1-0.4-0.1c-0.1,0-0.2,0-0.4,0.1    c-0.1,0.1-0.2,0.1-0.3,0.2c-0.1,0.1-0.2,0.2-0.2,0.3c-0.1,0.1-0.1,0.2-0.1,0.4C201.9,73.3,201.9,73.5,202,73.6z M202.9,72.5    c0.2,0,0.3,0.1,0.4,0.1c0.1,0.1,0.1,0.2,0.1,0.3c0,0.1-0.1,0.2-0.1,0.3c-0.1,0.1-0.2,0.1-0.2,0.1l0.4,0.6h-0.2l-0.4-0.6h-0.2V74    h-0.2v-1.4L202.9,72.5L202.9,72.5z M202.8,73.1c0.1,0,0.1,0,0.1,0c0.1,0,0.1,0,0.1,0c0.1,0,0.1-0.1,0.1-0.1s0-0.1,0-0.1    c0-0.1,0-0.1,0-0.1l-0.1-0.1c0,0-0.1,0-0.1,0s-0.1,0-0.1,0h-0.3v0.4L202.8,73.1L202.8,73.1z"></path>
		<g>
			<g>
				<path class="st0" d="M7.4,70.4c1.7-1.4,8.1-4.8,10.8-2.6c0.4,0.3,0.4,0.7,0.5,1.1c0.5,0.9,9.1-0.8,10.5-6.9      c0.1-0.3-0.4-1.2-0.4-1.2c-0.3,3.5-5.9,6.9-9.8,5.6c-0.6-0.2-0.3-1.1-1-1.6c-2.6-1.7-7.7-0.3-11.7,2C6.4,66.7,6.8,68.6,7.4,70.4      z"></path>
				<path class="st0" d="M10.2,77.7c0,0,1.1-1.5,2.2-2.2c2.2-1.7,5.3-3.5,5.7-1.9c0,0,0.1,0.2,0,0.5c-0.1,0.2,0.1,0.4,0.3,0.3      c8.3-2.3,11.1-7.1,11-10.8c-1.3,4.7-5.8,7.1-10.5,7.6c-0.5,0,0.1-0.8-0.7-1.3c-2-1.3-8.7,2.8-9.6,4.2      C8.6,74.1,9.8,77.1,10.2,77.7z"></path>
				<path class="st0" d="M6,63.3c6.3-3.1,10.4-2.5,12.1-0.4c0.7,0.8,0.6,1.4,1,1.7c3.4,1.6,9.5-1.6,9.2-4.8c0-0.1-0.1-0.3-0.1-0.3      c-0.2-0.2-0.6-0.6-0.6-0.6c1.2,4.4-7.5,5.5-8.8,3.5c-0.2-0.4-0.6-1.5-0.8-1.8C17,59.1,13,56.3,6.1,59.8C6,59.8,5.8,60.9,6,63.3z      "></path>
				<path class="st0" d="M24.3,57.4c0,0,2.9,0.5,1.1,2.2c-1.1,1-6.2,1.9-6.5-0.8c-1-7.8-8.8-8.5-12.1-2.1c0,0,0.4-0.2,0.6-0.3      c7-3.1,10.1,1.4,10.7,2.3c0.2,0.4,0.4,0.8,0.5,1.1c0.2,0.7,0.3,3.1,5.3,1.7C27.5,60.6,27.7,57.4,24.3,57.4"></path>
			</g>
			<g>
				<g>
					<path class="st0" d="M34.2,74.3v-0.8c2.4-0.2,2.4-0.2,2.4-1.7V58.2c0-1.5-0.1-1.6-2.4-1.7v-0.8H42c2.1,0,3.7,0.3,4.8,1       c1.1,0.8,1.7,1.9,1.7,3.4c0,2.1-1.5,3.7-4,4.1v0.1c2.6,0.4,4.8,1.7,4.8,4.9c0,3.8-2.6,5.2-6.7,5.2       C42.6,74.3,34.2,74.3,34.2,74.3z M39.3,63.9h1.8c2.8,0,4.5-1.1,4.5-3.7c0-2.8-2.2-3.5-4.1-3.5c-2.1,0-2.2,0.2-2.2,1.3       C39.3,58,39.3,63.9,39.3,63.9z M39.3,71.3c0,1.7,0.4,2.1,2.6,2.1c2.3,0,4.5-0.8,4.5-4.1c0-2.9-1.9-4.5-5.1-4.5h-1.9L39.3,71.3       L39.3,71.3z"></path>
					<path class="st0" d="M61.3,70.9c0,1.7,0.5,2.2,1,2.3c0.4,0.1,1,0.1,1.4,0l0.2,0.7c-1,0.5-2.2,0.8-3.2,0.8c-1,0-1.4-0.6-1.7-1.6       c-0.8,0.5-2.3,1.6-4,1.6c-2.5,0-3.9-1.8-3.9-3.8c0-1.3,0.5-2.6,2.5-3.2c2.2-0.7,4.7-1.3,5.4-2v-1.1c0-2.2-1.3-2.7-2.3-2.7       c-1.1,0-2.2,0.7-2.8,2.6c-0.1,0.5-0.3,0.8-0.8,0.8c-0.5,0-1.5-0.4-1.5-1.3c0-1.5,2.4-3.1,5.4-3.1c4.1,0,4.4,2,4.4,3.6v6.5H61.3       z M58.9,66.7c-0.6,0.4-2,0.9-3.1,1.3c-1.5,0.5-2.1,1.2-2.1,2.5c0,1.6,0.8,2.8,2.5,2.8c1.1,0,2.7-0.5,2.7-2.8L58.9,66.7       L58.9,66.7z"></path>
					<path class="st0" d="M77.3,72c0,1.4,0.1,1.4,2,1.6v0.8h-6.6v-0.8c1.9-0.1,2-0.2,2-1.6v-6.3c0-2.3-1-3.4-2.8-3.4       c-1.4,0-2.6,0.9-3.2,1.9c-0.2,0.4-0.3,0.8-0.3,1.5V72c0,1.4,0.1,1.4,2,1.6v0.8h-6.6v-0.8c1.9-0.1,2-0.2,2-1.6v-8.4       c0-1-0.2-1.1-0.8-1.2l-1-0.1v-0.7l4-0.7l0.4,2c1.7-1.1,2.9-2,4.9-2c2.5,0,3.9,1.6,3.9,4.3V72z"></path>
					<path class="st0" d="M93.3,72c0,1.4,0.1,1.4,2,1.6v0.8h-6.6v-0.8c1.9-0.1,2-0.2,2-1.6v-6.3c0-2.3-1-3.4-2.8-3.4       c-1.4,0-2.6,0.9-3.2,1.9c-0.2,0.4-0.2,0.8-0.2,1.5V72c0,1.4,0.1,1.4,2,1.6v0.8H80v-0.8c1.9-0.1,2-0.2,2-1.6v-8.4       c0-1-0.2-1.1-0.8-1.2l-1-0.1v-0.7l4-0.7l0.4,2c1.7-1.1,2.9-2,4.9-2c2.5,0,3.9,1.6,3.9,4.3L93.3,72L93.3,72z"></path>
					<path class="st0" d="M99.2,67.3c-0.1,2.8,0.6,6,3.9,6c2.2,0,3.2-1.3,3.9-2.9l0.8,0.4c-0.7,2.2-2.3,3.8-5.3,3.8       c-4.4,0.1-6.2-2.6-6.2-6.8c0-4,2-7,6.2-7c4.9,0,5.4,3.8,5.4,5.4c0,0.9-0.5,1-1.1,1L99.2,67.3L99.2,67.3z M104.3,66.2       c0.8,0,0.9-0.4,0.9-0.8c0-1.1-0.3-3.6-2.8-3.6c-2.8,0-3.2,3.4-3.2,4.5L104.3,66.2L104.3,66.2z"></path>
					<path class="st0" d="M113.6,63c1.8-1.6,2.6-2.2,3.5-2.2c1.1,0,1.4,0.7,1.4,1.3c0,0.8-0.6,1.5-1.3,1.5c-0.1,0-0.4,0-0.5-0.1       c-0.8-0.4-1.3-0.6-1.7-0.6c-0.6,0-1.6,0.7-1.6,2.8V72c0,1.4,0.2,1.4,2.6,1.6v0.8H109v-0.8c1.9-0.1,2-0.2,2-1.6v-8.4       c0-1-0.2-1.1-0.8-1.2l-1-0.1v-0.7l4.1-0.7L113.6,63z"></path>
				</g>
				<g>
					<path class="st0" d="M129.4,65.1v6.6c0,1.5,0.1,1.6,2.4,1.7v0.9h-7.7v-0.9c2.3-0.2,2.4-0.2,2.4-1.7V58.3c0-1.5-0.1-1.6-2.4-1.7       v-0.9h7.7v0.9c-2.3,0.1-2.4,0.2-2.4,1.7v5.8h9.2v-5.8c0-1.5-0.1-1.6-2.4-1.7v-0.9h7.7v0.9c-2.3,0.1-2.4,0.2-2.4,1.7v13.5       c0,1.5,0.1,1.6,2.4,1.7v0.9h-7.7v-0.9c2.3-0.2,2.4-0.2,2.4-1.7v-6.6L129.4,65.1L129.4,65.1z"></path>
					<path class="st0" d="M146.9,67.4c-0.1,2.8,0.7,5.9,3.9,5.9c2.1,0,3.1-1.3,3.8-2.8l0.8,0.5c-0.7,2.1-2.3,3.8-5.3,3.8       c-4.5,0-6.2-2.6-6.2-6.8c0-4,2-7.1,6.2-7.1c4.9,0,5.4,3.8,5.4,5.4c0,0.9-0.5,1.1-1.1,1.1L146.9,67.4L146.9,67.4z M152,66.2       c0.7,0,0.9-0.3,0.9-0.8c0-1.1-0.3-3.6-2.8-3.6c-2.8,0-3.2,3.3-3.2,4.4H152z"></path>
					<path class="st0" d="M167.7,70.8c0,1.7,0.4,2.2,0.9,2.3c0.3,0.1,0.7,0.1,1.1,0l0.1,0.8c-0.7,0.4-1.9,0.8-2.9,0.8       c-1,0-1.4-0.5-1.8-1.6c-0.8,0.6-2.3,1.6-3.9,1.6c-2.6,0-3.9-1.8-3.9-3.8c0-1.3,0.6-2.7,2.5-3.3c2.1-0.7,4.7-1.3,5.4-2v-1       c0-2.1-1.1-2.8-2.4-2.8c-1.1,0-2,0.6-2.6,2.6c-0.1,0.5-0.4,0.8-0.9,0.8s-1.5-0.4-1.5-1.3c0-1.5,2.2-3.1,5.3-3.1       c4.1,0,4.7,2.1,4.7,3.7V70.8z M165.2,66.7c-0.6,0.4-2,0.9-3.1,1.3c-1.4,0.6-2,1.3-2,2.5c0,1.6,0.8,2.7,2.5,2.7       c1,0,2.6-0.5,2.6-2.6V66.7z"></path>
					<path class="st0" d="M171.9,57c0-1-0.1-1.2-0.8-1.3l-1-0.1v-0.8l4.3-0.7l0.2,0.2v17.5c0,1.3,0.1,1.4,2,1.6v0.9h-6.6v-0.9       c1.9-0.1,2-0.2,2-1.6L171.9,57L171.9,57z"></path>
					<path class="st0" d="M181.6,62.4v8.1c0,2,0.8,2.6,1.7,2.6c0.7,0,1.1-0.1,1.7-0.4l0.2,0.7c-0.9,0.6-2,1.1-3.3,1.1       c-1,0-3-0.4-3-3.1v-9.2h-1.9v-1.2h2l1.7-3.4h0.8v3.4h3.4v1.2H181.6z"></path>
					<path class="st0" d="M187.1,57c0-1-0.1-1.1-0.8-1.3l-1-0.1v-0.8l4.2-0.7l0.2,0.1v8.5c1.7-1.1,2.9-2,4.8-2       c2.5,0,3.9,1.6,3.9,4.3v6.8c0,1.3,0.2,1.4,2,1.6v0.9h-6.6v-0.9c1.9-0.1,2-0.2,2-1.6v-6.3c0-2.3-1-3.2-2.8-3.2       c-1.4,0-2.6,0.8-3.2,2c-0.2,0.4-0.2,0.8-0.2,1.4v6.2c0,1.3,0.2,1.4,2,1.6v0.9H185v-0.9c1.9-0.1,2-0.2,2-1.6V57H187.1z"></path>
				</g>
			</g>
		</g>
	</g>
</g>
</svg>
