<?xml version="1.0" encoding="UTF-8"?>
<!-- Generator: Adobe Illustrator 28.0.0, SVG Export Plug-In . SVG Version: 6.00 Build 0)  -->
<svg xmlns="http://www.w3.org/2000/svg" xmlns:xlink="http://www.w3.org/1999/xlink" version="1.1" id="Layer_1" x="0px" y="0px" viewBox="0 0 210 130" style="enable-background:new 0 0 210 130;" xml:space="preserve">
<style type="text/css">
	.st0{fill:#004F5D;}
	.st1{fill:none;stroke:#083744;stroke-width:4.3485;stroke-miterlimit:10;}
	.st2{fill:#FFFFFF;}
	.st3{fill:#CCE32F;}
	.st4{fill:#083744;}
	.st5{fill:none;stroke:#083744;stroke-width:4.3485;stroke-linecap:round;stroke-miterlimit:10;}
	.st6{fill-rule:evenodd;clip-rule:evenodd;fill:none;stroke:#083744;stroke-width:4.3485;stroke-miterlimit:10;}
	.st7{fill:#083844;}
	.st8{fill:#FFFFFF;stroke:#083744;stroke-width:3.9239;stroke-linecap:square;stroke-miterlimit:10;}
	.st9{fill:none;stroke:#083744;stroke-width:3.9239;stroke-linecap:square;stroke-miterlimit:10;}
	.st10{fill:#FFFFFF;stroke:#FFFFFF;stroke-width:0.4461;stroke-miterlimit:10;}
</style>
<g>
	<path class="st0" d="M133.8,71.5V50.8h2.1v21c0,4.3,2.1,6.4,6.1,6.4c3.9,0,6.1-2.3,6.1-6.4v-21h2.1v20.7c0,5.4-3,8.5-8.2,8.5   C136.5,80,133.8,77.2,133.8,71.5"></path>
	<polyline class="st0" points="131.6,77.7 116.9,77.7 131.4,52.8 131.4,52.7 131.4,50.8 115.5,50.8 115.5,52.7 129.2,52.7    114.6,77.6 114.6,79.6 131.6,79.6  "></polyline>
	<polyline class="st0" points="112.4,77.7 97.7,77.7 112.3,52.7 112.3,50.8 96.3,50.8 96.3,52.7 110,52.7 95.5,77.6 95.5,79.6    112.4,79.6  "></polyline>
	<path class="st0" d="M86.5,78.3c-5.2,0-7.5-4-7.5-13.1c0-8.7,2.5-13.1,7.5-13.1c5.1,0,7.4,4.2,7.4,13.1   C94,74.3,91.7,78.3,86.5,78.3 M86.5,50.3c-6.3,0-9.6,5-9.6,14.8c0,10,3.1,14.8,9.6,14.8c4.3,0,9.5-2.6,9.5-14.8   C96.1,55.1,93,50.3,86.5,50.3z"></path>
	<path class="st0" d="M177.4,78.3c-5.2,0-7.5-4-7.5-13.1c0-8.7,2.5-13.1,7.5-13.1c5.1,0,7.4,4.2,7.4,13.1   C184.8,74.3,182.5,78.3,177.4,78.3 M177.4,50.3c-6.3,0-9.6,5-9.6,14.8c0,10,3.1,14.8,9.6,14.8c4.3,0,9.5-2.6,9.5-14.8   C186.9,55.1,183.9,50.3,177.4,50.3z"></path>
	<polyline class="st0" points="159.3,79.6 161.4,79.6 161.4,52.7 169.1,52.7 169.1,50.8 151.6,50.8 151.6,52.7 159.3,52.7  "></polyline>
	<path class="st0" d="M66.2,77.8h-5.6V65.4h5.5c4.9,0,7.1,2,7.1,6.2C73.2,76,71.1,77.8,66.2,77.8 M60.6,52.6h6.1   c3.7,0,5.5,1.8,5.5,5.5c0,4.8-3.9,5.6-6.3,5.6h-5.4V52.6z M69.9,64.4c2.9-0.7,4.6-3,4.6-6.4c0-4.9-2.6-7.3-7.8-7.3h-8v28.7h8.3   c5.3,0,8.5-3,8.5-7.9C75.4,67.8,73.3,65.1,69.9,64.4z"></path>
	<polyline class="st0" points="49.9,69.6 39.5,69.6 44.7,60.7 39.3,51.3 23.1,79.1 55.4,79.1  "></polyline>
</g>
</svg>
