<?xml version="1.0" encoding="UTF-8"?>
<!-- Generator: Adobe Illustrator 28.0.0, SVG Export Plug-In . SVG Version: 6.00 Build 0)  -->
<svg xmlns="http://www.w3.org/2000/svg" xmlns:xlink="http://www.w3.org/1999/xlink" version="1.1" id="Layer_1" x="0px" y="0px" viewBox="0 0 369 141" style="enable-background:new 0 0 369 141;" xml:space="preserve">
<style type="text/css">
	.st0{fill:#004F5D;}
	.st1{fill:none;stroke:#083744;stroke-width:4.3485;stroke-miterlimit:10;}
	.st2{fill:#FFFFFF;}
	.st3{fill:#CCE32F;}
	.st4{fill:#083744;}
	.st5{fill:none;stroke:#083744;stroke-width:4.3485;stroke-linecap:round;stroke-miterlimit:10;}
	.st6{fill-rule:evenodd;clip-rule:evenodd;fill:none;stroke:#083744;stroke-width:4.3485;stroke-miterlimit:10;}
	.st7{fill:#083844;}
	.st8{fill:#FFFFFF;stroke:#083744;stroke-width:3.9239;stroke-linecap:square;stroke-miterlimit:10;}
	.st9{fill:none;stroke:#083744;stroke-width:3.9239;stroke-linecap:square;stroke-miterlimit:10;}
	.st10{fill:#FFFFFF;stroke:#FFFFFF;stroke-width:0.4461;stroke-miterlimit:10;}
</style>
<g>
	<g>
		<path class="st4" d="M234.9,40.5l-49.7-23.3c-0.4-0.2-0.9-0.2-1.3,0l-49.7,23.3l49.7,23.3c0.4,0.2,0.9,0.2,1.3,0L234.9,40.5z"></path>
	</g>
	<g>
		<path class="st3" d="M185.3,88.6c-0.3,0.1-0.6,0.2-0.8,0.2s-0.6-0.1-0.8-0.2L150.2,73l-16.1,7.5l49.7,23.3c0.4,0.2,0.9,0.2,1.3,0    l49.7-23.3L218.8,73L185.3,88.6z"></path>
	</g>
	<g>
		<path class="st4" d="M185.3,108.6c-0.3,0.1-0.6,0.2-0.8,0.2s-0.6-0.1-0.8-0.2L150.2,93l-16.1,7.5l49.7,23.3c0.4,0.2,0.9,0.2,1.3,0    l49.7-23.3L218.8,93L185.3,108.6z"></path>
	</g>
	<g>
		<path class="st4" d="M184.5,68.8c-0.3,0-0.6-0.1-0.8-0.2L150.2,53l-16.1,7.5l49.7,23.3c0.4,0.2,0.9,0.2,1.3,0l49.7-23.3L218.8,53    l-33.4,15.7C185.1,68.8,184.8,68.8,184.5,68.8L184.5,68.8z"></path>
	</g>
</g>
</svg>
