<?xml version="1.0" encoding="UTF-8"?>
<!-- Generator: Adobe Illustrator 28.0.0, SVG Export Plug-In . SVG Version: 6.00 Build 0)  -->
<svg xmlns="http://www.w3.org/2000/svg" xmlns:xlink="http://www.w3.org/1999/xlink" version="1.1" id="Layer_1" x="0px" y="0px" viewBox="0 0 770 400" style="enable-background:new 0 0 770 400;" xml:space="preserve">
<style type="text/css">
	.st0{fill:#EAFF59;}
	.st1{clip-path:url(#SVGID_00000011015742385040987560000002559150442094511522_);}
	.st2{fill:#004F5D;}
	.st3{fill:none;stroke:#083744;stroke-width:4.3485;stroke-miterlimit:10;}
	.st4{fill:#FFFFFF;}
	.st5{fill:#CCE32F;}
	.st6{fill:#083744;}
	.st7{fill:none;stroke:#083744;stroke-width:4.3485;stroke-linecap:round;stroke-miterlimit:10;}
	.st8{fill-rule:evenodd;clip-rule:evenodd;fill:none;stroke:#083744;stroke-width:4.3485;stroke-miterlimit:10;}
	.st9{fill:#083844;}
	.st10{fill:#FFFFFF;stroke:#083744;stroke-width:3.9239;stroke-linecap:square;stroke-miterlimit:10;}
	.st11{fill:none;stroke:#083744;stroke-width:3.9239;stroke-linecap:square;stroke-miterlimit:10;}
	.st12{fill:#FFFFFF;stroke:#FFFFFF;stroke-width:0.4461;stroke-miterlimit:10;}
	.st13{clip-path:url(#SVGID_00000092444389939919896570000007537050628443050379_);fill:#EAFF59;}
	
		.st14{clip-path:url(#SVGID_00000092444389939919896570000007537050628443050379_);fill:#EAFF59;stroke:#EAFF59;stroke-width:4.7872;stroke-miterlimit:10;}
	.st15{clip-path:url(#SVGID_00000092444389939919896570000007537050628443050379_);}
	.st16{clip-path:url(#SVGID_00000093175421548788194760000006395304069626027159_);}
	.st17{fill:#0B333E;}
	.st18{fill:none;stroke:#FFFFFF;stroke-width:2;stroke-miterlimit:10;}
	.st19{clip-path:url(#SVGID_00000013155082480183731640000008979352925660311980_);}
	.st20{clip-path:url(#SVGID_00000028282742420386710270000002404380384812596886_);}
	.st21{fill:#12333E;}
</style>
<g>
	<path class="st0" d="M278.4,205.8c44.6,11.3,89.5,24.8,134.3,34.3c30.5,6.5,62,11.5,93.1,11.9c1.9-10.5,2.9-21.4,2.9-32.5   c0-72.7-42.1-135.6-103.3-165.6c-24.5-12-52-18.8-81.1-18.8C222.5,35.2,140,117.8,140,219.6S222.5,404,324.3,404   c17.8,0,34.9-2.5,51.2-7.2c43.2-12.5,79.9-40.3,103.7-77.2c-30.6-6-60.9-15.6-90.1-26.2c-40.5-14.8-80.6-32.7-120.8-49.3   c-0.3-4.3-0.5-8.6-0.5-13c43,15.7,86,33.2,129.4,47.2c30.1,9.7,61.2,18.2,92.5,22.8c4.7-9.6,8.7-19.7,11.7-30.1   c-31.5-2.1-63.1-8.6-93.8-16.4c-46.5-11.8-92.8-27.9-139-41.3c0.3-3.2,0.7-6.4,1.2-9.5C272.7,204.4,275.6,205.1,278.4,205.8z"></path>
</g>
<g>
	<defs>
		<circle id="SVGID_00000101087083903275401800000008207728663376773261_" cx="444.7" cy="219.6" r="182.1"></circle>
	</defs>
	<clipPath id="SVGID_00000162348417438869434260000014119220855195523246_">
		<use xlink:href="#SVGID_00000101087083903275401800000008207728663376773261_" style="overflow:visible;"></use>
	</clipPath>
	<g style="clip-path:url(#SVGID_00000162348417438869434260000014119220855195523246_);">
		<defs>
			<polygon id="SVGID_00000080167649826579537880000006464683899811156150_" points="1040.9,-280.1 585.1,-280.1 439.5,-199.2      302.4,-56.4 -21.4,143.9 -38,395 1040.9,395    "></polygon>
		</defs>
		<clipPath id="SVGID_00000163792266186073713790000001881762762496658860_">
			<use xlink:href="#SVGID_00000080167649826579537880000006464683899811156150_" style="overflow:visible;"></use>
		</clipPath>
		<g style="clip-path:url(#SVGID_00000163792266186073713790000001881762762496658860_);">
			<g>
				<g>
					<path class="st21" d="M950.2-71.6c5.7,25.2,10.9,50.7,14.3,76.4c1.1,8.3,10.3,48.7-4.4,49.3c-19.5,0.8-41.2-6.8-61-10.6       c-26.5-5.2-50.1-2.3-71.8,11.9c-33.1,21.8-54.6,64.6-74.2,99.8c-27.2,48.9-51.5,101.7-86,144.2       c-32.2,39.7-85.8,52.2-135.2,50.9c-56.1-1.4-111.8-20.5-163.8-43.1c-49.6-21.6-98.2-48.4-147.5-71.1       c-33.2-15.2-71.4-27.1-104.3-35.5c-10.9-2.8-19-1.4-22.3,7.5c-0.9-1.1-2.1-2.2-2.8-3.2C71.1,175.4,53,134.1,37.1,97.8       c-12-27.5-21-56.4-26.8-85.8C4.5-17.1,1.5-47.3,1.5-77c0-29.7,3-60,8.8-89.2c5.8-29.3,14.6-58.4,26.1-86       c22.9-55.2,56.9-106.1,99.2-148.4c42.3-42.3,93.1-76.3,148.4-99.2c27.6-11.4,56.7-20.3,86-26.1c29.2-5.8,59.2-8.5,89.1-8.8       c2.4,0,4.9,0,7.4,0.1c0-4.1,0-6.1,0-10.2c-2.5,0-4.9-0.1-7.4-0.1c0,0,0,0,0,0c-30.8,0.5-61.3,3-91.1,8.9       c-29.9,5.9-59.7,15-87.9,26.6c-56.5,23.4-108.5,58.2-151.7,101.4c-43.2,43.2-78,95.2-101.4,151.7c-11.7,28.2-20.7,58-26.6,87.9       c-5.9,29.8-8.9,60.8-8.9,91.1c0,30.4,3,61.3,8.9,91.1c6,30.1,15.1,59.7,27.4,88c16.4,37.8,35.6,80.7,57.1,111       c0.7,1.1,1.9,2.2,2.9,3.2c2.5-9.6,10.5-11.4,22-8.8c32.5,7.5,69.6,21.5,101.1,37.5c48.6,24.7,96.5,54,145.6,77.8       c52.2,25.2,108.3,46.7,165.6,49.5c53.1,2.6,106.4-10.9,142.2-51.9c39.2-44.9,67.4-101.5,98.3-153.9       c21.2-36,44.6-80.8,79.9-102.2c22.7-13.8,46.9-15.1,73.9-9.5c18.6,3.8,41.7,13.5,60.4,6.5c22.6-8.5-13-113.8-18.2-133.1       c-10.1-38.2-24-75.8-27.6-115.6c-2.2-24.8,0.9-48.9,2.8-73.5c-3.6,0.6-5.4,1-9.1,1.7c-0.9,25.2-2.5,50.2,0.3,75.4       C929.3-145.5,941.8-108.9,950.2-71.6z"></path>
					<path class="st21" d="M925.9-75.6c4.3,37.4,4.1,74.8-5.8,111.9c-1.8-0.6-3.7-1.2-5.5-1.8c-44.7-14.5-89.9-34.4-129.9-4       c-61.9,46.9-84.4,146.9-120.2,210.9c-19.1,34.3-84,50-119.3,51.9c-51.2,2.8-103.6-10.1-153.1-26.1       c-48.6-15.6-96.7-35.8-145-52.8c-36-12.7-76.5-24.4-109.7-28.9c-14.1-1.9-23.2,3.7-27.6-0.6c-17.8-17-33.6-65.6-48.3-98.8       C50.1,60.6,41.8,33.5,36.3,6.2C30.8-21.1,28-49.5,28-77.3c0-28,2.8-56.4,8.2-83.9c5.5-27.5,13.8-54.9,24.5-80.8       c21.6-52,53.7-100,93.5-139.8C194-421.6,242-453.7,294-475.3c26-10.8,53.4-19.1,81-24.5c27.5-5.4,55.8-8.1,84-8.2       c2.4,0,4.9,0,7.4,0.1c0-4.1,0-6.1,0-10.2c-2.5,0-4.9-0.1-7.4-0.1c0,0,0,0,0,0c-29.1,0.4-57.8,2.9-86,8.4       c-28.2,5.6-56.3,14.1-82.9,25.1C236.9-462.6,187.8-429.8,147-389c-40.8,40.8-73.6,89.8-95.7,143.1       c-11,26.6-19.5,54.6-25.1,82.8c-5.6,28.1-8.4,57.3-8.4,85.9c0,28.5,2.9,57.6,8.5,85.7c5.6,28.1,14.2,55.8,25.8,82.2       c15.1,34.3,31.6,73.7,50.2,101.6c0.7,1.1,1.9,2.3,2.9,3.5c5.2-7.5,13.6-8,23.5-5.1c33.5,10.2,72.9,17.9,108.2,31.7       c49,19.2,97.7,41.9,147.1,59.9c50.8,18.5,104.7,33.8,158.1,32.7c41.4-0.8,99.5-13.5,125.1-51c26.9-39.4,46.6-85.9,68.6-129       c17.1-33.4,35.9-73.1,65.8-94.8c41.6-30.2,86-8.8,130.9,1.9c17.9,4.3,5.7-100.6,3.3-115.6c-9.8-61.4-24.9-119.8-26-183       c-3.8,0.7-5.8,1.1-9.6,1.9C902.7-193.4,919.1-135.2,925.9-75.6z"></path>
					<path class="st21" d="M898.5-84.3c-0.8,35.1-17.7,91.3-31.2,96.1c-19.5,6.9-85.7-42.6-129.2-8.4       C686.5,44,680.3,134.8,648,181.3c-21.5,30.9-63.3,50.7-104.3,57c-44.5,6.9-91.5,0.4-136.3-9.1c-44.8-9.5-89.7-23-134.3-34.3       c-35.9-9.1-74.1-15.5-109.6-20c-7.4-0.9-28.3,0.9-32.8-7.5c-16.2-30-31.6-62.2-45.1-93.2c-10.3-23.5-18.1-48.9-23.2-74       c-5.2-25.4-7.8-52.1-7.8-78c0-26.1,2.6-52.9,7.7-78.5c5.1-25.6,12.9-51.3,23-75.4c20.3-48.8,50.4-93.9,87.7-131.2       c37.3-37.3,82.5-67.6,131.2-87.7c24.3-10.1,50.2-17.9,76-23c25.7-5.1,52.4-7.5,78.9-7.7c2.4,0,4.9,0,7.4,0.1       c0-4.1,0-6.1,0-10.2c-2.5,0-4.9-0.1-7.4-0.1c0,0,0,0,0,0c-27.3,0.5-54.4,2.7-80.8,7.9c-26.5,5.2-53,13.3-77.9,23.6       c-50.1,20.8-96.2,51.6-134.5,89.9c-38.3,38.3-69.2,84.5-89.9,134.5c-10.3,24.8-18.4,51.2-23.6,77.5       c-5.2,26.3-7.9,53.8-7.9,80.6c0,26.6,2.7,54,8,80.2c5.2,25.9,13.3,52,23.9,76.3c13.9,31.7,30.7,64,46.1,95.1       c3.2,6.5,26.9,4.3,30.2,4.7c36.9,4.4,74.3,13.1,110.7,23.7c46.3,13.5,92.7,29.5,139.2,41.4c46.8,11.9,96,20.8,143.3,15.5       c38.5-4.3,89.9-21,110.4-54.8c33.1-54.7,46-148,100.2-190.2c39.5-30.7,108.5,10.2,129.1,7.7c14.6-1.8,25.2-73.3,23.9-102.4       c-2.7-57-20.5-113.4-25.1-170.8c-4,0.8-6,1.2-10.1,2.1C879.5-194.3,899.7-138.2,898.5-84.3z"></path>
					<path class="st21" d="M869.3-96.1c-4.9,29.3-22.5,53.8-45.2,69.8c-18.8,13.3-21.2,6.3-40.3-2.1c-11.1-4.9-22.9-9.3-34.9-11.5       c-20.9-3.7-43.4-0.3-59.8,13.9c-45.4,39.1-43.9,107-73.5,151.9c-19.6,29.8-49.2,50.3-83.7,60.4c-36.6,10.7-77.1,10.3-115.8,6.8       c-39.2-3.5-79-10.8-118.3-16.6c-32.8-4.9-67.2-7.6-99-10.4c-10.5-0.9-37.9-1.2-44.8-14.2c-15-28.2-30.9-59.6-44-89.2       c-9.6-21.8-16.9-45.4-21.7-68.8c-4.8-23.6-7.3-48.4-7.4-72.6c0-24.3,2.4-49.2,7.2-73c4.7-23.8,12.1-47.5,21.4-70.2       c18.6-45.3,47-87.5,82-122.5c35-35,77.2-63.6,122.7-82c23-9.3,46.9-16.7,71-21.5c24-4.8,49-7,73.7-7.2c2.4,0,4.9,0,7.4,0.1       c0-4.1,0-6.1,0-10.2c-2.5,0-4.9-0.1-7.4-0.1c0,0,0,0,0,0c-25.6,0.4-51,2.5-75.7,7.4c-24.7,4.9-49.6,12.5-72.9,22.1       c-46.8,19.4-90.1,48.4-126,84.2c-35.8,35.8-64.7,79.1-84.2,125.8c-9.6,23.1-17.2,47.7-22,72.2c-4.9,24.5-7.4,50.2-7.4,75.1       c0,24.8,2.6,50.3,7.5,74.7c4.9,24.1,12.5,48.3,22.3,70.8c13.2,30.1,30,61.8,44.2,90.5c5.2,10.6,32.4,10.8,40.2,11.7       c33.3,3.8,69.3,7.6,103.5,14.1c41.5,7.9,83.4,17.5,124.9,23.3c41.2,5.7,84.2,8.4,123.9-0.8c36.9-8.6,70.5-28.8,91.5-59.1       c32.2-46.3,31.6-119.4,79.1-161.2c16.6-14.6,39.3-18.5,60.7-14.8c11.9,2,23.5,6.3,34.5,11.1c15.4,6.7,24.5,14.2,36.9,6.2       c21.2-13.7,37.3-47.8,40.5-79.3c5.1-50.6-16.7-103.7-22.9-154.4c-4.1,0.9-6.2,1.3-10.4,2.2C853.9-195.6,877.3-143.7,869.3-96.1       z"></path>
					<path class="st21" d="M839.5-109.1c-8.9,23.7-31.7,39-53.5,48.3c-19.7,8.4-32.7,12.3-54.1,4.7c-11.2-4-21.7-8.7-33.5-11.1       c-20.6-4.1-41.5-2.5-58.7,10.4c-41.4,31-41.3,91.2-61.9,131.9c-14.1,27.8-36,49.4-64.2,63c-28.7,13.8-61.4,18.9-93.9,20.7       c-32.6,1.9-66.2,0.4-99.2-0.6c-28.4-0.8-57-1.1-85.4-0.8c-20.2,0.2-43.4-0.1-55.5-19.3c-17.3-27.2-32-58.2-44.7-87       c-8.9-20.1-15.8-42.1-20.2-63.7c-4.5-21.8-6.8-44.9-6.9-67.1c0-22.4,2.5-45.3,6.6-67.6c4.1-22.1,11.2-44.1,19.9-64.9       c17.7-42.4,44.3-81.7,76.2-113.6c32.4-32.4,71.7-58.7,114.1-76.3c21.1-8.7,43.6-15.6,66-20c22.4-4.4,45.6-6.5,68.6-6.7       c2.4,0,4.9,0,7.4,0.1c0-4.1,0-6.1,0-10.2c-2.5-0.1-4.9-0.1-7.4-0.1c0,0,0,0,0,0c-23.9,0.4-47.6,2.4-70.6,6.9       c-23.1,4.6-46.2,11.6-67.9,20.6c-43.6,18.1-84,45.1-117.4,78.5c-33.3,33.3-60.2,73.6-78.4,117c-9,21.4-16,44.2-20.5,66.9       c-4.5,22.7-6.9,46.6-6.8,69.7c0.1,23,2.5,46.7,7.1,69.2c4.5,22.3,11.6,44.9,20.8,65.6c12.9,29,27.4,60,44.2,87.7       c10.4,17.2,35,16.9,51.7,17.6c29.6,1.2,60.6,2,90.9,4.4c35.5,2.8,71.6,6.4,106.8,6.5c34.8,0.1,70.6-2.9,102.4-15.6       c30.5-12.2,55.5-33.7,71.5-62.1c23.8-42.4,23.8-104.7,65.9-138.9c16.4-13.3,38.6-15.7,58.9-11.9c12.4,2.3,24.4,6.9,35.8,12.1       c18.2,8.2,29.5,5.7,46.8-3.3c22.2-11.5,43.5-30.2,50.9-56c12.3-42.5-13.7-92.7-20.4-135.8c-4.2,0.9-6.3,1.4-10.6,2.4       C826.7-197.4,854.2-148.1,839.5-109.1z"></path>
					<path class="st21" d="M753.1-90.3c-20.1,4.4-48.3,12.2-69,7.5c-11.1-2.5-21.5-8.3-32.9-10.8c-19.9-4.3-41.3-4.4-59.2,6.5       c-40.4,24.7-39.2,79.7-53.5,117.7c-19.8,52.7-64.7,83.1-119.2,96.7c-47.8,11.9-100.2,16.9-149.7,21.1       c-26.4,2.2-48,1.1-63.6-22.2c-17.8-26.4-34.2-57.2-46.8-85.9c-16.6-37.7-25-79.5-25.1-120.7c-0.1-41.5,8.6-82.9,24.5-121.9       c15.9-39.1,41.1-75.3,70.5-104.7c30-30,66.3-54.3,105.5-70.5c39.2-16.2,81.7-24.3,124.5-24.7c2.4,0,4.9,0,7.4,0.1       c0-4.1,0-6.1,0-10.2c-2.5-0.1-4.9-0.1-7.4-0.1c0,0,0,0,0,0c-44.6,0.9-87.9,8.8-128.4,25.5c-40.4,16.7-77.9,41.8-108.8,72.8       c-30.8,30.8-55.8,68.1-72.7,108.1c-16.7,39.6-25.3,83-25.3,125.9c0.1,42.5,8.8,85.7,25.9,124.6c12.6,28.7,28.7,59.7,45.9,86.2       c14,21.5,37.3,22.6,60.9,21.4c53.9-2.9,110.4-4,163.2-12.9c58.7-9.9,110.2-37,133.7-92.2C570,8.1,569.6-48.7,610-75.6       c17.6-11.7,38.7-12.2,58.9-8c12.1,2.5,23,8.8,34.8,11.5c19.8,4.6,42.3-2.1,61.5-7.6c32-9.1,57.8-38.9,56-73.8       c-1.4-27.1-13.2-53.6-18.1-80.2c-4.3,1-6.4,1.4-10.7,2.4c4.9,25.2,17.3,50.3,18.5,75.9C812.4-121.9,783.7-97,753.1-90.3z"></path>
					<path class="st21" d="M725.7-114c-37.3,4.6-77.7,5.6-115-3.1c-20.2-4.7-42.2-6.2-61.4,2.2c-41.8,18.3-37.5,72-47.3,107.9       C489.1,39.9,460,75.8,416.9,98.3c-35,18.3-76.4,31.9-115.4,39.4c-31.4,6-48.9,3.7-68.5-22.6c-19.3-25.9-36.7-56.3-49.3-85.3       c-15-34.7-23-73-23-110.8c-0.1-37.9,7.8-76.1,22.4-111.5c14.7-35.6,37.7-68.8,64.7-95.8c27.5-27.5,61-49.9,96.9-64.8       c36-14.9,75.1-22.3,114.3-22.7c2.4,0,4.9,0,7.4,0.1c0-4.1,0-6.1,0-10.2c-2.5-0.1-4.9-0.1-7.4-0.1c0,0,0,0,0,0       c-41.1,0.8-81,8-118.2,23.5c-37.2,15.4-71.8,38.5-100.2,67c-28.2,28.2-51.5,62.5-66.9,99.2C158.4-160,150.4-120,150.5-80.8       c0.1,39,8.2,78.8,23.8,114.6c12.6,28.8,29.4,59.3,48.3,85.5c18.4,25.5,36.9,27.1,67,22.7c42.9-6.2,88.6-16.8,128.3-32.9       c47.6-19.3,82.4-53.5,97.5-102.5c11.6-37.4,7.8-89.9,49.4-111.3c18.7-9.6,40.4-8.4,60.4-3.9c37.2,8.4,72.5,8.5,110.3,3       c27-4,60.3-21,59.2-52.3c-0.8-23.3-14.6-46.5-19.5-69.3c-4.3,1-6.4,1.5-10.6,2.4c5,21.4,19.3,43.6,20.2,65.5       C786.1-129.1,749.9-116.9,725.7-114z"></path>
					<path class="st21" d="M703.9-130.9c-38.5,2.1-77.6-0.9-116-4.6c-24.4-2.4-49.3-8.4-73.3-1.3C472-124.1,478-71.4,470.9-36.5       c-8.5,41.9-26.1,79.7-57.1,108.7c-23.5,21.9-53.6,42.7-84.3,52.7c-31,10.2-49.9,5.4-70.4-20.8c-20-25.7-38.6-54.9-51.1-84.2       c-13.6-31.9-20.9-66.6-21-101.2c-0.1-34.6,6.9-69.4,20.4-101.3c13.6-32.1,34.3-62.2,58.9-86.9c25.1-25.1,55.6-45.5,88.4-59.1       c32.8-13.6,68.4-20.3,104.2-20.7c2.4,0,4.9,0,7.4,0.1c0-4.1,0-6.1,0-10.2c-2.5-0.1-4.9-0.1-7.4-0.1c0,0,0,0,0,0       c-37.6,0.8-73.4,7.6-108.1,21.5c-34.1,13.6-66.2,35.4-91.7,61.3c-25.6,26-47,56.9-61.2,90.3c-14,33-21.3,69.3-21.2,105.2       c0.1,35.8,7.6,71.9,21.8,104.9c12.6,29.2,30.7,59,50.5,84.7c20.4,26.5,38.5,30.3,69.9,21.7c33.6-9.1,68.1-27.3,95.8-48.2       c35.7-26.9,57.2-64.3,67.1-107.9c8-35.6,1.9-88.2,44.7-103.2c21.2-7.4,41.7-3,63.4,0.1c39.5,5.7,81.9,7.2,121.5,3.9       c20.3-1.7,59.7-8.2,57.9-35.8c-1.3-20.1-16.7-40.4-21.8-60c-4.2,1-6.3,1.5-10.5,2.4c5.1,18.5,21.6,38,22.9,56.9       C761.9-135.6,722.5-131.9,703.9-130.9z"></path>
					<path class="st21" d="M687.7-140.5c-32,0.6-64.1-1.7-95.9-4.2c-32.2-2.6-68-10.4-99.7-4.4c-39.1,7.4-38.6,59.7-44,91.3       c-6.3,37.4-16,75-36.4,106.9c-14.7,23-33.3,46.8-57.9,60.9c-26.4,15.1-53,3.6-70.5-17.7c-20.3-24.7-38.6-52.4-50.9-81.6       c-12.2-29-18.8-60.5-18.9-91.9c-0.1-31.2,6.2-62.6,18.4-91.3c12.3-29,30.9-55.9,53.2-78.2c22.6-22.6,50.2-41.1,79.8-53.4       c29.6-12.3,61.6-18.3,94.1-18.7c2.4,0,4.9,0.1,7.4,0.1c0-4.1,0-6.1,0-10.2c-2.5-0.1-4.9-0.1-7.4-0.1c0,0,0,0,0,0       c-34.2,0.9-66.4,6.9-98,19.4c-30.8,12.2-59.4,32.1-83.1,55.6c-23.3,23.1-43.1,51.6-55.4,81.5c-12.5,30.4-19.3,62.7-19.2,95.1       c0.1,32.6,7,65.4,19.7,95.5c12.4,29.4,30.9,57.9,51.3,82.9c18.4,22.6,41.8,33,70.5,19c27-13.1,49.9-35.6,67.4-58.4       c24-31.2,36.6-69,43.5-108.2c5.9-33.5,2.2-85.9,43.3-95.2c28.7-6.5,61.3,0.8,90.4,3.4c34.5,3,69.2,5.8,103.8,4.8       c17.3-0.5,53.2-0.8,51.9-24.4c-0.9-16.7-19.6-35.9-24.7-52.6c-4.1,1-6.2,1.4-10.3,2.4c5.6,17,23.8,33.5,26.4,50.6       C740-139.6,701.8-140.8,687.7-140.5z"></path>
					<path class="st21" d="M677-142.7c-62.5,1.1-132.9-9.5-189.2-4.5c-35.3,3.2-46.5,41.7-52.6,76.1c-6,33.9-11.6,68.5-23.2,100.3       c-7.9,21.7-18.7,48.2-37.4,63.7c-22.7,18.8-54.9-0.9-70.1-14.4C285,61.1,267.8,29.7,256.8,2c-10.6-26.8-16.7-54.5-16.8-82.8       c-0.1-28,5.5-55.8,16.4-81.6c11-26,27.5-49.7,47.5-69.7c20.3-20.3,44.7-36.6,71.2-47.6c26.6-11,54.8-16.3,83.9-16.7       c2.4,0,4.9,0.1,7.4,0.1c0-4.1,0-6.1,0-10.2c-2.5-0.1-4.9-0.1-7.4-0.1c0,0,0,0,0,0c-30.9,0.9-59.5,6.1-87.8,17.4       c-27.5,11-53.3,28.6-74.5,49.8c-20.9,20.9-38.6,45.9-49.7,72.9c-11.2,27.5-17.3,56.1-17.2,85.3c0.1,29.5,6.4,58.4,17.6,86.3       c11.5,28.7,29.5,57.5,49.1,78.8c15.7,17.1,46.9,32.6,70.5,15.7c20.8-14.9,34.3-40.9,44.6-63.2c14.8-32.2,21.3-68.1,27.4-103.4       c5.6-32.9,10.7-75.3,47.2-83.1c33.4-7.2,76,2.7,111.2,4.7c27.7,1.6,55.5,3,83.1,2.6c12.9-0.2,47.2,1.8,42.5-17.8       c-3.8-16.1-22.8-31.6-28.9-48c-4,0.9-6,1.4-9.9,2.3c3.3,8.2,7.8,15.7,12.7,23c4.1,6,17.4,16.6,18.5,24.2       C718.2-140.1,691.8-142.9,677-142.7z"></path>
					<path class="st21" d="M671.7-137.2c-47.3,3.6-96.6,2.7-143.8,6.2c-21.9,1.6-60.1-0.4-76.5,16.1c-9.7,9.7-14.6,26.2-17.8,38.9       c-7.1,29-10.6,59.9-17.1,89.1c-4.4,19.9-10.3,45.4-23.3,61.4c-15,18.5-41.1-1-54.5-10.1C311,45.4,293.1,25.8,281-5.9       c-9.1-23.9-14.6-48.8-14.6-73.8c0-24.5,5.1-48.9,14.5-72c9.8-24.2,25.1-41.8,43.3-60.6c18.2-18.7,37.1-33.5,61.1-43       c23.7-9.4,48.3-14.2,73.8-14.6c2.4,0,4.9,0.1,7.4,0.2c0-4.1,0-6.1,0-10.2c-2.5-0.1-4.9-0.2-7.4-0.2c0,0,0,0,0,0       c-26.9,0.8-52.7,5-77.7,15.4c-24.7,10.2-46.9,25.5-65.3,44.6c-18.5,19-34.6,39.7-44.6,64.2c-9.8,24.3-14.8,49.5-15.2,75.7       c-0.4,26.4,5.9,52.6,15.4,77.3c11.7,30.1,27.8,54.6,54.1,73.2c15.9,11.2,42.1,30.3,60.4,11.4c15.6-16.1,22.4-42.1,28-62.9       c8.3-30.5,12.1-62.9,18.6-93.9c3.1-14.4,7.2-30.4,16.1-42.7c15.2-21,42-18.3,65.3-19.3c52.2-2.2,106.6-0.7,159-3.1       c5.9-0.3,22.6,0.6,27.8-3.1c8.4-5.8,5-3.8,2.5-12.7c-2.2-8.1-16.2-17.8-21.1-24.2c-5.4-7-10.2-14.5-13.8-22.6       c-3.8,0.9-5.7,1.3-9.5,2.1c3.9,8.1,8.9,15.5,14.6,22.5c5.7,7.1,19.6,16,22.9,24.6c3,7.8,7.5,7.2,0,12.9       C692.2-137.1,676.9-137.6,671.7-137.2z"></path>
				</g>
			</g>
		</g>
	</g>
</g>
<path class="st21" d="M270.2,219.6c0-75.5,47.5-139.9,114.3-164.9c2.2-0.8,4.5-1.6,6.7-2.4c-2.9-1.3-5.8-2.6-8.8-3.8  c-2.2,0.8-4.4,1.6-6.6,2.5c-66.4,27.2-113.2,92.4-113.2,168.6c0,72,41.8,134.2,102.4,163.8c5.6,2.7,11.4,5.2,17.3,7.3  c3-1.2,5.9-2.5,8.8-3.8c-5.8-1.9-11.6-4.1-17.1-6.7C312.8,352.7,270.2,291.1,270.2,219.6z"></path>
</svg>
