<?xml version="1.0" encoding="UTF-8"?>
<!-- Generator: Adobe Illustrator 28.0.0, SVG Export Plug-In . SVG Version: 6.00 Build 0)  -->
<svg xmlns="http://www.w3.org/2000/svg" xmlns:xlink="http://www.w3.org/1999/xlink" version="1.1" id="Layer_1" x="0px" y="0px" viewBox="0 0 369 141" style="enable-background:new 0 0 369 141;" xml:space="preserve">
<style type="text/css">
	.st0{fill:#004F5D;}
	.st1{fill:none;stroke:#083744;stroke-width:4.3485;stroke-miterlimit:10;}
	.st2{fill:#FFFFFF;}
	.st3{fill:#CCE32F;}
	.st4{fill:#083744;}
	.st5{fill:none;stroke:#083744;stroke-width:4.3485;stroke-linecap:round;stroke-miterlimit:10;}
	.st6{fill-rule:evenodd;clip-rule:evenodd;fill:none;stroke:#083744;stroke-width:4.3485;stroke-miterlimit:10;}
	.st7{fill:#083844;}
	.st8{fill:#FFFFFF;stroke:#083744;stroke-width:3.9239;stroke-linecap:square;stroke-miterlimit:10;}
	.st9{fill:none;stroke:#083744;stroke-width:3.9239;stroke-linecap:square;stroke-miterlimit:10;}
	.st10{fill:#FFFFFF;stroke:#FFFFFF;stroke-width:0.4461;stroke-miterlimit:10;}
</style>
<g>
	<polyline class="st1" points="163.6,98.9 137.6,98.9 137.6,31.4 205,31.4 205,54.7  "></polyline>
	<polyline class="st1" points="137.6,88.8 127.4,88.8 127.4,21.3 194.9,21.3 194.9,31.4  "></polyline>
	<g>
		<line class="st1" x1="143.8" y1="119.7" x2="241.6" y2="21.9"></line>
	</g>
	<g>
		<rect x="171.1" y="49.2" class="st2" width="65.2" height="65.2"></rect>
		<path class="st2" d="M234.8,50.7v62.1h-62.1V50.7H234.8 M237.9,47.6h-68.3v68.3h68.3V47.6L237.9,47.6z"></path>
	</g>
	<g>
		<rect x="174.8" y="52.8" class="st3" width="65.2" height="65.2"></rect>
		<path class="st3" d="M238.4,54.4v62.1h-62.1V54.4H238.4 M241.6,51.3h-68.3v68.3h68.3V51.3L241.6,51.3z"></path>
	</g>
</g>
</svg>
