<?xml version="1.0" encoding="UTF-8"?>
<!-- Generator: Adobe Illustrator 28.0.0, SVG Export Plug-In . SVG Version: 6.00 Build 0)  -->
<svg xmlns="http://www.w3.org/2000/svg" xmlns:xlink="http://www.w3.org/1999/xlink" version="1.1" id="Layer_1" x="0px" y="0px" viewBox="0 0 210 130" style="enable-background:new 0 0 210 130;" xml:space="preserve">
<style type="text/css">
	.st0{fill:#004F5D;}
	.st1{fill:none;stroke:#083744;stroke-width:4.3485;stroke-miterlimit:10;}
	.st2{fill:#FFFFFF;}
	.st3{fill:#CCE32F;}
	.st4{fill:#083744;}
	.st5{fill:none;stroke:#083744;stroke-width:4.3485;stroke-linecap:round;stroke-miterlimit:10;}
	.st6{fill-rule:evenodd;clip-rule:evenodd;fill:none;stroke:#083744;stroke-width:4.3485;stroke-miterlimit:10;}
	.st7{fill:#083844;}
	.st8{fill:#FFFFFF;stroke:#083744;stroke-width:3.9239;stroke-linecap:square;stroke-miterlimit:10;}
	.st9{fill:none;stroke:#083744;stroke-width:3.9239;stroke-linecap:square;stroke-miterlimit:10;}
	.st10{fill:#FFFFFF;stroke:#FFFFFF;stroke-width:0.4461;stroke-miterlimit:10;}
</style>
<g>
	<path class="st0" d="M82.1,75.1l0.4,5.8h0.1c0.2-0.6,0.4-1.2,0.7-1.8l2-4h3.2l0.5,5.8h0.1c0.2-0.6,0.4-1.2,0.6-1.7l1.9-4.1h4.4   l-6,9.7h-3.7l-0.3-5.3h-0.1c-0.1,0.5-0.3,1-0.5,1.5l-1.9,3.8h-3.6l-2.2-9.7H82.1z"></path>
	<path class="st0" d="M95.7,75.1h4.1l-0.6,3.3h2.6l0.6-3.3h4.1l-1.8,9.7h-4.1l0.6-3.4h-2.6L98,84.8h-4.1L95.7,75.1z"></path>
	<path class="st0" d="M118.4,80c-0.6,3.1-3.8,5-7.4,5c-3.6,0-6.1-1.9-5.5-5c0.6-3.1,3.9-5,7.4-5S119,77,118.4,80L118.4,80z    M109.8,80.1c-0.2,1.1,0.5,1.9,1.8,1.9c1.3,0,2.3-0.8,2.5-1.9c0.2-1-0.5-1.9-1.8-1.9C111,78.2,110,79,109.8,80.1z M119.4,75.1h4.2   l-1.3,6.6h3.6l-0.6,3.1h-7.8L119.4,75.1z M135.9,81.4l0.2,0.1c0.7,0.5,1.5,0.9,2.5,0.9c0.4,0,1.1-0.1,1.2-0.6   c0.1-0.4-0.5-0.5-0.8-0.5l-0.8-0.1c-1.6-0.2-2.8-1.1-2.6-2.6c0.4-2.3,3.2-3.6,5.7-3.6c1.3,0,2.5,0.3,3.5,0.8l-1.6,2.5   c-0.6-0.4-1.4-0.7-2.3-0.7c-0.4,0-0.9,0.1-1,0.5c-0.1,0.4,0.4,0.4,0.8,0.5l0.9,0.2c1.7,0.3,2.9,1.1,2.6,2.8   c-0.4,2.3-3.2,3.5-5.7,3.5c-1.5,0-3.1-0.3-4.3-0.9L135.9,81.4L135.9,81.4z"></path>
	<path class="st0" d="M150.5,81.3l-0.2-1.7c0-0.4,0-0.8,0-1.2h-0.2l-1.3,3H150.5L150.5,81.3z M146.8,84.8h-4.5l5.9-9.7h4.7l2.3,9.7   h-4.5l-0.2-1.2h-3.2L146.8,84.8L146.8,84.8z"></path>
	<path class="st0" d="M156.7,75.1h4.2l-1.3,6.6h3.6l-0.6,3.1h-7.8L156.7,75.1z M165.2,75.1h7.8l-0.5,2.7H169l-0.2,0.9h3.3l-0.5,2.5   h-3.3l-0.2,1h3.7l-0.5,2.7h-8L165.2,75.1z"></path>
	<g>
		<path class="st0" d="M107.8,57.7l5.3-0.2l-4.5,14.8h9.6l4.5-14.8l5.2,0.2l2.1-7h-20.2L107.8,57.7L107.8,57.7z M87.9,61.5    c-1.3,6.9-8.7,11.1-16.7,11.1c-8,0-13.8-4.2-12.4-11.1c1.3-6.8,8.7-11.2,16.8-11.2C83.5,50.3,89.3,54.7,87.9,61.5L87.9,61.5z     M68.4,61.6c-0.5,2.5,1.2,4.2,4.1,4.2c2.9,0,5.3-1.7,5.7-4.2c0.4-2.3-1.1-4.2-4.1-4.2C71.1,57.4,68.8,59.4,68.4,61.6L68.4,61.6z"></path>
		<path class="st0" d="M85,70.6c2.7,1.2,6.4,2,9.8,2c5.7,0,11.9-2.5,12.9-7.7c0.7-3.7-1.9-5.4-5.8-6.2l-2.1-0.4    c-0.7-0.1-1.9-0.3-1.7-1.1c0.2-0.9,1.4-1.1,2.3-1.1c2.1,0,3.8,0.7,5.2,1.6l3.7-5.5c-2.3-1.3-5-1.9-8-1.9c-5.7,0-12,2.9-13,8    c-0.7,3.4,2.1,5.2,5.8,5.7l1.9,0.3c0.8,0.1,2.1,0.2,1.9,1.2c-0.2,1-1.8,1.3-2.7,1.3c-2.2,0-4.1-0.9-5.6-2l-0.4-0.3L85,70.6z     M148.8,51.2c-1.9-0.6-4.1-0.9-6.3-0.9c-7.7,0-14.8,5-16,11.3c-1.2,6.2,3.8,10.9,11.3,10.9c1.7,0,5.3-0.3,7-0.9l1.8-8.1    c-1.8,1.2-3.7,2-5.9,2c-2.9,0-5-1.8-4.5-4.2c0.5-2.3,3.2-4.2,6-4.2c2.2,0,3.9,1,5.2,2.2L148.8,51.2L148.8,51.2z M164.1,50.3    c-8,0-15.4,4.4-16.8,11.2c-1.3,6.9,4.4,11.1,12.5,11.1c8,0,15.4-4.2,16.7-11.1C177.9,54.7,172.1,50.3,164.1,50.3z M162.7,57.4    c3,0,4.6,1.9,4.1,4.2c-0.5,2.5-2.8,4.2-5.7,4.2c-2.9,0-4.6-1.7-4.1-4.2C157.4,59.4,159.7,57.4,162.7,57.4L162.7,57.4z M61.2,46.4    c-2.4-0.7-5.1-1.1-7.8-1.1c-9.6,0-18.4,6.1-19.9,13.7c-1.5,7.4,4.7,13.2,14.1,13.2c2.1,0,6.7-0.3,8.7-1l2.3-9.8    c-2.2,1.5-4.6,2.4-7.3,2.4c-3.6,0-6.2-2.2-5.7-5.1c0.6-2.8,3.9-5.1,7.5-5.1c2.7,0,4.9,1.2,6.5,2.6L61.2,46.4L61.2,46.4z"></path>
		<path class="st0" d="M170.6,71.2c0.1-0.8,1-1.4,1.9-1.4c0.9,0,1.5,0.6,1.4,1.4c-0.1,0.8-1,1.4-1.9,1.4    C171.1,72.6,170.5,72,170.6,71.2z M173.5,71.2c0.1-0.6-0.3-1-1-1c-0.7,0-1.3,0.4-1.4,1c-0.1,0.6,0.3,1,1,1    C172.8,72.2,173.4,71.8,173.5,71.2L173.5,71.2z M172.9,71.9h-0.4l-0.3-0.6h-0.3l-0.1,0.6h-0.4l0.3-1.4h0.8c0.4,0,0.6,0.1,0.5,0.4    c0,0.2-0.2,0.4-0.5,0.4L172.9,71.9L172.9,71.9z M172.4,71.1c0.2,0,0.3,0,0.4-0.2c0-0.1-0.1-0.1-0.3-0.1H172l-0.1,0.3H172.4    L172.4,71.1z"></path>
	</g>
	<path class="st0" d="M34.2,84.9H79l0,0h0l-0.6-2.5H34.2L34.2,84.9z M34.2,81.3h44l-0.6-2.5H34.2V81.3z M34.2,77.8h43.2l-0.2-0.9   l-0.4-1.7H34.2L34.2,77.8z M127.9,75.1h7.8l-0.5,2.7h-3.6l-0.2,0.9h3.3l-0.5,2.5H131l-0.2,1h3.7l-0.5,2.7h-8L127.9,75.1z"></path>
</g>
</svg>
