<?xml version="1.0" encoding="UTF-8"?>
<!-- Generator: Adobe Illustrator 28.0.0, SVG Export Plug-In . SVG Version: 6.00 Build 0)  -->
<svg xmlns="http://www.w3.org/2000/svg" xmlns:xlink="http://www.w3.org/1999/xlink" version="1.1" id="Layer_1" x="0px" y="0px" viewBox="0 0 369 141" style="enable-background:new 0 0 369 141;" xml:space="preserve">
<style type="text/css">
	.st0{fill:#004F5D;}
	.st1{fill:none;stroke:#083744;stroke-width:4.3485;stroke-miterlimit:10;}
	.st2{fill:#FFFFFF;}
	.st3{fill:#CCE32F;}
	.st4{fill:#083744;}
	.st5{fill:none;stroke:#083744;stroke-width:4.3485;stroke-linecap:round;stroke-miterlimit:10;}
	.st6{fill-rule:evenodd;clip-rule:evenodd;fill:none;stroke:#083744;stroke-width:4.3485;stroke-miterlimit:10;}
	.st7{fill:#083844;}
	.st8{fill:#FFFFFF;stroke:#083744;stroke-width:3.9239;stroke-linecap:square;stroke-miterlimit:10;}
	.st9{fill:none;stroke:#083744;stroke-width:3.9239;stroke-linecap:square;stroke-miterlimit:10;}
	.st10{fill:#FFFFFF;stroke:#FFFFFF;stroke-width:0.4461;stroke-miterlimit:10;}
</style>
<g>
	<path class="st3" d="M203.9,33.4H199h-6.3h-20.2c-9.5,0-17.3,7.7-17.3,17.3v57h8.1h1.5h32.7c8.7,0,15.8-7.1,15.8-15.8V33.4H203.9z"></path>
	<path class="st2" d="M177.4,46c-5.6,0-10.1,4.5-10.1,10.1V95H192c5.1,0,9.2-4.1,9.2-9.2V46H177.4z"></path>
	<path class="st1" d="M148.8,95h-21.4c-4.8,0-8.7-3.9-8.7-8.7v-56c0-4.8,3.9-8.7,8.7-8.7h65.1c4.8,0,8.7,3.9,8.7,8.7v56   c0,4.8-3.9,8.7-8.7,8.7h-25.2"></path>
	<path class="st1" d="M219.6,46h21.9c4.8,0,8.7,3.9,8.7,8.7v56c0,4.8-3.9,8.7-8.7,8.7H176c-4.8,0-8.7-3.9-8.7-8.7v-56   c0-4.8,3.9-8.7,8.7-8.7h25.2"></path>
	<g>
		<line class="st1" x1="189.4" y1="46" x2="167.3" y2="63.4"></line>
		<line class="st1" x1="201.2" y1="49" x2="167.3" y2="75.6"></line>
		<line class="st1" x1="201.5" y1="61.1" x2="167.3" y2="87.9"></line>
		<line class="st1" x1="201.5" y1="73.3" x2="173.9" y2="95"></line>
	</g>
</g>
</svg>
