<?xml version="1.0" encoding="UTF-8"?>
<!-- Generator: Adobe Illustrator 28.0.0, SVG Export Plug-In . SVG Version: 6.00 Build 0)  -->
<svg xmlns="http://www.w3.org/2000/svg" xmlns:xlink="http://www.w3.org/1999/xlink" version="1.1" id="Layer_1" x="0px" y="0px" viewBox="0 0 210 130" style="enable-background:new 0 0 210 130;" xml:space="preserve">
<style type="text/css">
	.st0{fill:#004F5D;}
	.st1{fill:none;stroke:#083744;stroke-width:4.3485;stroke-miterlimit:10;}
	.st2{fill:#FFFFFF;}
	.st3{fill:#CCE32F;}
	.st4{fill:#083744;}
	.st5{fill:none;stroke:#083744;stroke-width:4.3485;stroke-linecap:round;stroke-miterlimit:10;}
	.st6{fill-rule:evenodd;clip-rule:evenodd;fill:none;stroke:#083744;stroke-width:4.3485;stroke-miterlimit:10;}
	.st7{fill:#083844;}
	.st8{fill:#FFFFFF;stroke:#083744;stroke-width:3.9239;stroke-linecap:square;stroke-miterlimit:10;}
	.st9{fill:none;stroke:#083744;stroke-width:3.9239;stroke-linecap:square;stroke-miterlimit:10;}
	.st10{fill:#FFFFFF;stroke:#FFFFFF;stroke-width:0.4461;stroke-miterlimit:10;}
</style>
<g>
	<path class="st0" d="M53.8,52.8c-0.6-0.5-1.2-0.9-1.9-1.1l-1.1,22.2l5.5-15.4c0.2-1.1,0-2.2-0.4-3.2C55.4,54.3,54.7,53.4,53.8,52.8   L53.8,52.8z"></path>
	<path class="st0" d="M44.7,51.4l3.2,22.2l3.2-22.2C49,50.7,46.7,50.7,44.7,51.4z"></path>
	<path class="st0" d="M42,52.8c-0.9,0.6-1.6,1.5-2.1,2.5c-0.4,1-0.6,2.1-0.4,3.2L45,73.8l-1.1-22.2C43.2,51.9,42.6,52.3,42,52.8   L42,52.8z"></path>
	<path class="st0" d="M30.9,54.9c3.7,6.5,7.4,13.3,11.1,19.6c-1.3-5.3-2.7-14.4-4.5-17c-0.8-0.9-1.8-1.6-3-2.1   C33.3,54.9,32.1,54.8,30.9,54.9L30.9,54.9z"></path>
	<path class="st0" d="M24.4,58.1l15,17.5L30.1,55c-1.1,0-2.2,0.3-3.2,0.9C25.9,56.4,25,57.2,24.4,58.1L24.4,58.1z"></path>
	<path class="st0" d="M55.9,62.8l-2.5,12c3.2-5.6,6.4-11.1,9.5-16.7c-1.5-0.1-3,0.4-4.3,1.2C57.3,60.2,56.4,61.4,55.9,62.8   L55.9,62.8z"></path>
	<path class="st0" d="M63.8,58.1l-8,17.8l14-15.3C69,59.8,68,59.1,67,58.7C66,58.3,64.9,58.1,63.8,58.1L63.8,58.1z"></path>
	<path class="st0" d="M22.4,66c4.9,3.8,9.8,7.7,14.7,11.5L23.8,58.7C22.7,61,22.2,63.5,22.4,66L22.4,66z"></path>
	<path class="st0" d="M71.5,62.8c-0.3-0.6-0.7-1.2-1.2-1.6l-12,16.5c4.8-3.6,9.4-7.2,14-10.9C72.4,65.5,72.1,64,71.5,62.8L71.5,62.8   z"></path>
	<path class="st0" d="M22.4,73.7l12.8,5.9C31,75.3,26.7,71.2,22.4,67V73.7z"></path>
	<path class="st0" d="M72.3,74.1v-6.1L60.2,79.8C64.3,77.9,68.1,76.1,72.3,74.1z"></path>
	<path class="st0" d="M22.4,79.6c3.8,0.9,8,1.9,11.5,2.7l-11.5-7.6V79.6z"></path>
	<path class="st0" d="M72.3,79.9v-4.7c-3.6,2.3-7.4,4.7-10.7,7.1L72.3,79.9z"></path>
	<path class="st0" d="M22.4,85.4h11.3l-11.3-4.8V85.4z"></path>
	<path class="st0" d="M72.3,85.4V81c-3.7,1.6-6.9,2.9-10.4,4.4H72.3z"></path>
	<path class="st0" d="M68.4,52.2c0-0.7,0-1.3-0.3-2c-0.2-0.6-0.6-1.2-1-1.7c-0.5-0.5-1-0.9-1.6-1.1c-0.6-0.3-1.3-0.4-1.9-0.4   c-0.7,0-1.3,0.1-1.9,0.4c-0.6,0.3-1.2,0.7-1.6,1.1c-0.5,0.5-0.8,1.1-1,1.7c-0.2,0.6-0.3,1.3-0.3,2C58.7,58.4,68.6,58.8,68.4,52.2z"></path>
	<path class="st0" d="M36.2,48.7c0.3-6.8-10.2-6.5-9.8,0C26,55.5,36.8,55.6,36.2,48.7z"></path>
	<path class="st0" d="M47.9,50c0.7,0,1.5-0.1,2.2-0.3c0.7-0.3,1.3-0.7,1.8-1.2c0.5-0.5,0.9-1.1,1.2-1.8c0.3-0.7,0.4-1.4,0.4-2.1   c0.1-0.8,0-1.5-0.2-2.3c-0.2-0.7-0.6-1.4-1.2-2c-0.5-0.6-1.2-1-1.9-1.3c-0.7-0.3-1.5-0.4-2.3-0.4c-0.8,0-1.5,0.1-2.2,0.4   c-0.7,0.3-1.4,0.7-1.9,1.3c-0.5,0.6-0.9,1.2-1.2,2c-0.2,0.7-0.3,1.5-0.2,2.3c0,0.7,0.1,1.5,0.3,2.1c0.3,0.7,0.7,1.3,1.2,1.8   s1.1,0.9,1.8,1.2C46.4,49.9,47.2,50.1,47.9,50L47.9,50z"></path>
	<g>
		<path class="st0" d="M107.5,52.6h-2.2v12.9h2.2V52.6z"></path>
		<path class="st0" d="M97.4,52.6l-3.8,11L90,58.9l4.9-6.3h-2.6l-4.5,6.1v-6.1h-2.3v12.9h2.2v-6.3l4.7,6.4h2.7l1.2-3.7h4.7l1.3,3.7    h2.3l-4.4-12.9L97.4,52.6z M96.9,60l1.7-5.3l1.8,5.3H96.9z"></path>
		<path class="st0" d="M121.3,81.5l-2.2-9.3h-3.9V85h2.2V74l2.8,11h2.2l2.8-10.9v11h2.2V72.2h-3.9L121.3,81.5z"></path>
		<path class="st0" d="M132.9,72.1L128.5,85h2.2l1.2-3.7h4.7l1.3,3.7h2.3l-4.5-12.9H132.9z M132.4,79.5l1.7-5.4l1.8,5.3L132.4,79.5z    "></path>
		<path class="st0" d="M149.1,82.1l-5.1-10h-2.9V85h2.1v-9.7l5,9.7h3V72.1h-2.1L149.1,82.1z"></path>
		<path class="st0" d="M191.2,83.1h-5.3v-3.6h3.9v-1.9h-3.9V74h4.8v-1.9h-7V85h7.5L191.2,83.1z"></path>
		<path class="st0" d="M171,72.1h-0.4v10.1l-5.1-10.1h-2.9v11h-6.7v-3.6h3.9v-1.9h-3.9V74h4.8v-1.9h-7V85h11v-9.8l5,9.8h3V74.1h3.9    v11h2.2v-11h3.9v-2H171z"></path>
		<path class="st0" d="M111.9,78.5c0.4-0.3,0.7-0.8,0.9-1.2c0.2-0.5,0.3-1,0.3-1.5c0-0.5-0.1-1-0.3-1.5c-0.2-0.5-0.5-0.9-0.9-1.2    c-1.1-0.8-2.4-1.1-3.7-0.9h-3.7v5.4v5.6h-6.9v-3.6h3.9v-1.9h-3.9V74h4.8v-1.9h-7V85h11.2v-5.5h1.1c1,1.6,3.2,5.5,3.2,5.5h2.6    l-3.5-5.7C110.9,79.2,111.4,79,111.9,78.5L111.9,78.5z M106.8,77.7V74h1.9c1.7,0,2.4,0.7,2.4,1.8c0,1.1-0.7,1.8-2.4,1.8    L106.8,77.7z"></path>
		<path class="st0" d="M135.1,59c0.4-0.3,0.7-0.8,0.9-1.2c0.2-0.5,0.3-1,0.3-1.5c0-0.5-0.1-1-0.3-1.5s-0.5-0.9-0.9-1.2    c-1.1-0.8-2.4-1.1-3.7-0.9h-3.7V58v5.6h-6.9V60h3.9v-1.9h-3.9v-3.6h4.8v-1.9h-7v12.9h11.2V60h1.2c1,1.6,3.2,5.5,3.2,5.5h2.6    l-3.5-5.7C134.1,59.7,134.6,59.4,135.1,59L135.1,59z M130,58.1v-3.6h1.9c1.7,0,2.4,0.7,2.4,1.8c0,1.1-0.7,1.8-2.4,1.8L130,58.1z"></path>
		<path class="st0" d="M92.9,73.1c-1.1-0.8-2.4-1.1-3.7-1h-3.7v7.6V85h2.2v-5.3h1.5c1.3,0.1,2.6-0.2,3.7-1c0.4-0.4,0.7-0.8,0.9-1.3    c0.2-0.5,0.3-1,0.3-1.5c0-0.5-0.1-1.1-0.3-1.5C93.6,73.9,93.3,73.5,92.9,73.1L92.9,73.1z M89.6,77.8h-1.8V74h1.8    c1.7,0,2.4,0.7,2.4,1.9C91.9,77,91.2,77.8,89.6,77.8z"></path>
		<path class="st0" d="M114,58c-1.7-0.6-2.6-1.1-2.6-2.2c0-0.8,0.8-1.7,2.3-1.7c1,0,1.9,0.2,2.8,0.7V53c-0.9-0.4-1.8-0.6-2.7-0.6    c-2.7,0-4.7,1.6-4.7,3.7c0,1.9,1.4,3,3.6,3.7c1.7,0.6,2.4,1.2,2.4,2.2c0,1-0.9,1.9-2.5,1.9c-1.2,0-2.4-0.3-3.5-0.9v2    c1,0.5,2.2,0.8,3.4,0.8c3.3,0,4.9-1.8,4.9-3.9C117.4,59.7,116.2,58.8,114,58z"></path>
		<path class="st0" d="M193.2,82.8c0-0.4,0.1-0.8,0.4-1.2c0.2-0.3,0.6-0.6,1-0.8c0.4-0.2,0.8-0.2,1.2-0.1c0.4,0.1,0.8,0.3,1.1,0.6    c0.3,0.3,0.5,0.7,0.6,1.1c0.1,0.4,0,0.8-0.1,1.2c-0.2,0.4-0.4,0.7-0.8,0.9c-0.3,0.2-0.8,0.4-1.2,0.4c-0.3,0-0.6-0.1-0.8-0.2    c-0.3-0.1-0.5-0.3-0.7-0.5c-0.2-0.2-0.4-0.4-0.5-0.7C193.3,83.3,193.2,83,193.2,82.8L193.2,82.8z M195.4,85.3c0.5,0,1-0.2,1.4-0.5    c0.4-0.3,0.7-0.7,0.9-1.2c0.2-0.5,0.2-1,0.1-1.5c-0.1-0.5-0.4-0.9-0.7-1.3c-0.4-0.4-0.8-0.6-1.3-0.7c-0.5-0.1-1,0-1.5,0.2    c-0.5,0.2-0.9,0.5-1.1,0.9c-0.3,0.4-0.4,0.9-0.4,1.4c0,0.3,0.1,0.7,0.2,1c0.1,0.3,0.3,0.6,0.6,0.9c0.2,0.2,0.5,0.4,0.9,0.6    C194.7,85.3,195,85.4,195.4,85.3L195.4,85.3z M194.8,82.9h0.5l0.8,1.3h0.5l-0.9-1.3c0.1,0,0.2,0,0.3-0.1c0.1,0,0.2-0.1,0.3-0.2    c0.1-0.1,0.1-0.2,0.2-0.3c0-0.1,0.1-0.2,0-0.3c0-0.6-0.3-0.9-1.1-0.9h-1.1v3h0.4V82.9z M194.8,82.5v-0.9h0.6    c0.3,0,0.7,0.1,0.7,0.4s-0.3,0.5-0.7,0.5H194.8z"></path>
	</g>
</g>
</svg>
