<?xml version="1.0" encoding="UTF-8"?>
<!-- Generator: Adobe Illustrator 28.0.0, SVG Export Plug-In . SVG Version: 6.00 Build 0)  -->
<svg xmlns="http://www.w3.org/2000/svg" xmlns:xlink="http://www.w3.org/1999/xlink" version="1.1" id="Layer_1" x="0px" y="0px" viewBox="0 0 210 130" style="enable-background:new 0 0 210 130;" xml:space="preserve">
<style type="text/css">
	.st0{fill:#004F5D;}
	.st1{fill:none;stroke:#083744;stroke-width:4.3485;stroke-miterlimit:10;}
	.st2{fill:#FFFFFF;}
	.st3{fill:#CCE32F;}
	.st4{fill:#083744;}
	.st5{fill:none;stroke:#083744;stroke-width:4.3485;stroke-linecap:round;stroke-miterlimit:10;}
	.st6{fill-rule:evenodd;clip-rule:evenodd;fill:none;stroke:#083744;stroke-width:4.3485;stroke-miterlimit:10;}
	.st7{fill:#083844;}
	.st8{fill:#FFFFFF;stroke:#083744;stroke-width:3.9239;stroke-linecap:square;stroke-miterlimit:10;}
	.st9{fill:none;stroke:#083744;stroke-width:3.9239;stroke-linecap:square;stroke-miterlimit:10;}
	.st10{fill:#FFFFFF;stroke:#FFFFFF;stroke-width:0.4461;stroke-miterlimit:10;}
</style>
<g>
	<g>
		<path class="st0" d="M115.4,77c0,0.3,0.1,0.4,0.3,0.4c0.1,0,0.3,0,0.3-0.1l40.4-26.3c0.8-0.5,1.4-0.8,2.3-0.8h8.9    c1.4,0,2.3,0.9,2.3,2.3v16.9c0,2.1-0.5,3.2-2.3,4.4l-10.8,6.4c-0.1,0.1-0.3,0.1-0.4,0.1s-0.3-0.1-0.3-0.5V60.1    c0-0.3-0.1-0.4-0.3-0.4c-0.1,0-0.3,0-0.3,0.1l-29.5,19.3c-0.8,0.5-1.5,0.6-2.3,0.6h-19.5c-1.4,0-2.3-0.9-2.3-2.3V53    c0-0.1-0.1-0.4-0.3-0.4c-0.1,0-0.3,0-0.3,0.1L81.9,64.6c-0.3,0.1-0.3,0.3-0.3,0.3c0,0.1,0,0.1,0.1,0.3l13.9,13.9    c0.1,0.1,0.3,0.4,0.3,0.5c0,0.1-0.3,0.3-0.4,0.3H82.9c-1,0-1.8-0.1-2.3-0.6l-8.5-8.5c-0.1-0.1-0.1-0.1-0.3-0.1    c-0.1,0-0.1,0-0.3,0.1l-14.1,8.5c-0.9,0.5-1.4,0.6-2.3,0.6H42.5c-1.4,0-2.3-0.9-2.3-2.3V60.7c0-2.1,0.5-3.2,2.3-4.4l10.8-6.5    c0.1-0.1,0.3-0.1,0.3-0.1c0.1,0,0.3,0.1,0.3,0.5v22.2c0,0.3,0.1,0.4,0.3,0.4s0.3,0,0.4-0.1L91,50.6c0.9-0.5,1.4-0.6,2.4-0.6h19.8    c1.4,0,2.3,0.9,2.3,2.3V77H115.4z"></path>
	</g>
</g>
</svg>
