<?xml version="1.0" encoding="UTF-8"?>
<!-- Generator: Adobe Illustrator 28.0.0, SVG Export Plug-In . SVG Version: 6.00 Build 0)  -->
<svg xmlns="http://www.w3.org/2000/svg" xmlns:xlink="http://www.w3.org/1999/xlink" version="1.1" id="Layer_1" x="0px" y="0px" viewBox="0 0 210 130" style="enable-background:new 0 0 210 130;" xml:space="preserve">
<style type="text/css">
	.st0{fill:#004F5D;}
	.st1{fill:none;stroke:#083744;stroke-width:4.3485;stroke-miterlimit:10;}
	.st2{fill:#FFFFFF;}
	.st3{fill:#CCE32F;}
	.st4{fill:#083744;}
	.st5{fill:none;stroke:#083744;stroke-width:4.3485;stroke-linecap:round;stroke-miterlimit:10;}
	.st6{fill-rule:evenodd;clip-rule:evenodd;fill:none;stroke:#083744;stroke-width:4.3485;stroke-miterlimit:10;}
	.st7{fill:#083844;}
	.st8{fill:#FFFFFF;stroke:#083744;stroke-width:3.9239;stroke-linecap:square;stroke-miterlimit:10;}
	.st9{fill:none;stroke:#083744;stroke-width:3.9239;stroke-linecap:square;stroke-miterlimit:10;}
	.st10{fill:#FFFFFF;stroke:#FFFFFF;stroke-width:0.4461;stroke-miterlimit:10;}
</style>
<g id="layer1" transform="translate(-65.636968,-180.87691)">
	<g id="g5218" transform="translate(0.13229104,-0.13230417)">
		<path id="path4658" class="st0" d="M226.8,219.2l-0.1-0.4c-6,1.9-10.6,7.1-11.5,13.6c0.4,0.1,0.7,0.2,1.1,0.3    C216.7,226.9,220.4,221.3,226.8,219.2"></path>
		<path id="path4662" class="st0" d="M236.8,218.9c0,0.2,0,0.3,0,0.5c6.1,2.1,10.2,7.9,10.2,14.4c0,8.4-6.9,15.3-15.3,15.2    c-7.1,0-14.8-5.5-15.3-14.3c-0.4-0.1-0.8-0.2-1.2-0.3c0,0,0,0.1,0,0.1c0,9.7,8,16.5,16.5,16.5c8.7,0,16.6-6.9,16.5-16.5    C248.1,227.2,243.4,221,236.8,218.9"></path>
		<path id="path4666" class="st0" d="M231.6,218.1l-0.8,0l0,0.4l0.7,0c1.6,0,3.2,0.3,4.6,0.7c0-0.2,0-0.3,0-0.5    C234.8,218.3,233.3,218.1,231.6,218.1"></path>
		<path id="path4670" class="st0" d="M236.6,215.1l-0.4,0c0.1,0.8,0.2,1.6,0.2,2.3c0,8.4-6.6,15.9-15.9,15.9    c-7.5,0-15.9-6-15.9-15.9c0-9.9,8.4-15.9,15.9-15.9c4.2,0,8.7,1.9,11.7,5.2l0.3-0.3c-3.3-3.7-7.9-5.7-12.7-5.7    c-9.4,0-17.1,7.7-17.1,17.1c0,9.9,8,17.1,17.1,17.1c10.5,0,17.1-8.7,17.1-17.1C236.8,216.9,236.7,216,236.6,215.1"></path>
		<g id="g5194">
			<path id="path4674" class="st0" d="M137.1,260.5c-0.8,0.6-1,1.1-1.1,1.9c-0.7,2.7-1.4,3.7-2,4.5c1.1,1.4,2.3,2.6,4.2,3.1     c-0.5,0.3-1.7,0.9-2.7,0.9c-1.4,0-2.9-0.6-3.9-1.7c-1.9,1.5-4,1.8-5.9,1.8c-3.6,0-5.9-1.8-5.9-4.2c0-2,0.7-3.3,3.1-4.5l1.7-0.9     c-1.5-1.3-2.3-2.1-2.3-3.8c0-1.8,1.7-3.6,5.1-3.6c2.9,0,5,1.2,5,3.5c0,1.9-1.6,2.8-3.5,3.6c1.6,1.4,2.4,2.2,3.9,4.3     c0.7-0.8,1.2-2.3,1.2-3.2c0.1-0.7,0-1-0.6-1.7H137.1z M123.5,266.1c0,1.9,1.7,2.7,3.7,2.7c0.9,0,2.3-0.4,3.3-1.2     c-1.3-1.8-2.8-3.5-4.5-5.1C123.9,263.9,123.5,264.8,123.5,266.1 M127.5,259.9c1.8-0.9,2-1.8,2-2.5c0-0.9-0.8-1.6-1.9-1.7     c-1.1,0-2.1,0.4-2.1,1.6c0,0.5,0.3,1,1,1.7L127.5,259.9"></path>
			<path id="path4686" class="st0" d="M93.7,233.3c0-0.9-0.4-1.3-0.8-1.6h5l5.9,11.6l5.9-11.6h4.8c-0.4,0.3-0.8,0.7-0.8,1.6v13     c0,0.9,0.5,1.3,0.8,1.6h-5c0.3-0.3,0.8-0.7,0.8-1.6v-10.8h-0.1l-6.3,12.3h-1.6l-6.3-12.4l0,0v10.8c0,0.9,0.4,1.3,0.8,1.6h-4     c0.3-0.3,0.8-0.7,0.8-1.6L93.7,233.3"></path>
			<path id="path4690" class="st0" d="M118,238.3c0-0.8-0.5-1.3-0.8-1.6h4.1v9.7c0,0.8,0.5,1.2,0.8,1.5h-4.9     c0.3-0.3,0.8-0.7,0.8-1.5V238.3z M117.4,233.6c0-0.9,0.9-1.9,2-1.9c1,0,2,1,2,1.9c0,1.2-0.9,2-2,2     C118.2,235.6,117.4,234.7,117.4,233.6"></path>
			<path id="path4694" class="st0" d="M145.1,247.1c-1.1,0.6-2.1,1.1-3.8,1.1c-4.4,0-6.5-2.8-6.5-6c0-3.2,2.7-5.9,6.4-5.9     c1.5,0,2.2,0.6,2.9,0.6c0.5,0,0.6-0.3,0.7-0.4v3.2c-0.7-0.7-1.5-1.5-3.2-1.5c-2.4,0-3.6,2-3.6,4c0,2.3,1.4,4.1,3.8,4.1     c1.7,0,2.6-0.7,3.2-1.5L145.1,247.1"></path>
			<path id="path4698" class="st0" d="M148.2,232.1c0-0.8-0.5-1.2-0.8-1.4h4.1v7.7h0.1c0.7-0.8,1.9-2,4.3-2c3.5,0,3.5,3.1,3.5,4.3     v5.7c0,0.8,0.5,1.2,0.8,1.5h-4.9c0.3-0.3,0.8-0.7,0.8-1.5v-6c0-0.8-0.2-1.9-1.8-1.9c-1.3,0-2.5,1.3-2.9,2.1v5.9     c0,0.8,0.5,1.2,0.8,1.5h-4.9c0.3-0.3,0.8-0.7,0.8-1.5V232.1"></path>
			<path id="path4702" class="st0" d="M185.3,232.3c0-0.8-0.5-1.3-0.8-1.6h4.1v15.7c0,0.8,0.5,1.2,0.8,1.5h-4.9     c0.3-0.3,0.8-0.7,0.8-1.5V232.3"></path>
			<path id="path4706" class="st0" d="M163,260.8c0-0.8-0.4-1.3-0.8-1.6h4.1v7.4c0,1.3,0.4,2.1,1.6,2.1c2.5,0,3-2.8,3-4.7v-3.2     c0-0.8-0.5-1.3-0.8-1.6h4.1v7.7c0,2,0.2,2.6,0.7,3.6h-3.3c-0.3-0.6-0.4-1.3-0.4-1.8h-0.1c-0.7,1.3-2.2,2.1-4.4,2.1     c-2.9,0-3.7-2.1-3.7-4.3L163,260.8"></path>
			<path id="path4710" class="st0" d="M189.2,254.9c0-0.8-0.5-1.3-0.8-1.6h4.1v15.6c0,0.8,0.5,1.3,0.8,1.6h-4.9     c0.3-0.3,0.8-0.7,0.8-1.6V254.9"></path>
			<path id="path4714" class="st0" d="M211.3,260.9c0-0.8-0.5-1.4-0.8-1.6h4.1v2.3h0.1c0.7-1.3,1.8-2.7,4-2.6c0.5,0,1.1,0.1,1.6,0.3     v2.6c-0.3-0.3-0.7-0.9-1.9-0.9c-1.9,0-2.7,1.6-3.8,3v4.9c0,0.8,0.5,1.3,0.8,1.6h-4.9c0.3-0.3,0.8-0.7,0.8-1.6L211.3,260.9"></path>
			<path id="path4718" class="st0" d="M192.2,244.5c0.9,0.8,2.4,1.9,4.5,1.9c1.6,0,2.7-0.3,2.7-1.4c0-2.4-7.6-0.9-7.6-5.2     c0-2.2,2.5-3.4,5-3.4c2.2,0,3.2,0.5,4.1,0.5c0.4,0,0.7-0.2,0.9-0.3v3.2c-0.6-0.6-2.2-1.6-4.1-1.6c-1.6,0-2.6,0.4-2.6,1.3     c0,2.2,7.6,0.7,7.6,5.1c0,2.1-2.2,3.6-5.4,3.6c-2.2,0-4-0.7-4.5-0.7c-0.3,0-0.5,0.2-0.7,0.4L192.2,244.5"></path>
			<path id="path4722" class="st0" d="M222.3,267c0.9,0.8,2.4,1.9,4.5,1.9c1.6,0,2.7-0.3,2.7-1.4c0-2.4-7.6-0.9-7.6-5.2     c0-2.2,2.5-3.4,5-3.4c2.2,0,3.2,0.5,4.1,0.5c0.4,0,0.7-0.2,0.9-0.3v3.2c-0.6-0.6-2.2-1.6-4.1-1.6c-1.6,0-2.6,0.4-2.6,1.3     c0,2.2,7.6,0.7,7.6,5.1c0,2.1-2.2,3.6-5.4,3.6c-2.2,0-4-0.7-4.5-0.7c-0.3,0-0.5,0.2-0.7,0.4V267"></path>
			<path id="path4726" class="st0" d="M145.6,255.9c0-0.9-0.4-1.4-0.8-1.7h6.8c2.5,0,7.2,0,7.2,3.9c0,2.4-1.8,3.6-3.7,3.8v0     c2.1,0.1,4.9,0.9,4.9,4.2c0,4.2-5.4,4.4-8.5,4.4h-6.8c0.4-0.3,0.8-0.7,0.8-1.5V255.9z M151.6,261.1c2.2,0.1,3.7-0.8,3.7-2.4     c0-1.9-1.4-2.5-3.7-2.5l-2.6,0v5L151.6,261.1z M151.6,268.5c2.2,0,5-0.5,5-2.8c0-2.5-2.8-2.7-5-2.7H149v5.5H151.6"></path>
			<path id="path4730" class="st0" d="M207.8,269.3c-1.5,0.8-2.8,1.4-5.3,1.4c-4.2,0-7-2.3-7-6c0-3.6,2.8-5.8,6.7-5.8     c5,0,5.9,3.5,5.9,6.4H199c0,1.1,0.8,3.5,4.2,3.5c2.6,0,3.8-1.2,4.6-2.1L207.8,269.3z M205,263.7c-0.1-1.1-0.5-2.9-2.9-2.9     c-2.2,0-3,1.6-3.1,2.9H205"></path>
			<path id="path4734" class="st0" d="M178.4,261.1h-1.7v-1.9h1.7v-2.4l3.3-0.8v3.2h4.2v1.9h-4.2v5.7c0,0.9,0.2,2,1.7,2     c1.2,0,2-0.5,2.6-1.1v2.2c-1.1,0.5-2.1,0.8-3.2,0.8c-3.4,0-4.3-1.1-4.3-4.4V261.1"></path>
			<path id="path4738" class="st0" d="M174.6,246.8c-1.5,0.8-2.8,1.4-5.3,1.4c-4.2,0-7-2.3-7-6c0-3.6,2.8-5.8,6.7-5.8     c5,0,5.9,3.5,5.9,6.4h-9.2c0,1.1,0.8,3.5,4.2,3.5c2.6,0,3.8-1.2,4.6-2.1L174.6,246.8z M171.7,241.1c-0.1-1.1-0.5-2.9-2.9-2.9     c-2.2,0-3,1.6-3.1,2.9H171.7"></path>
			<path id="path4742" class="st0" d="M125.4,238.6h-1.7v-1.9h1.7v-2.4l3.3-0.8v3.2h4.2v1.9h-4.2v5.7c0,0.9,0.2,2,1.7,2     c1.2,0,2-0.5,2.6-1.1v2.2c-1.1,0.5-2.1,0.8-3.2,0.8c-3.4,0-4.3-1.1-4.3-4.4V238.6"></path>
			<path id="path4746" class="st0" d="M178.1,232.3c0-0.8-0.5-1.3-0.8-1.6h4.1v15.7c0,0.8,0.5,1.2,0.8,1.5h-4.9     c0.3-0.3,0.8-0.7,0.8-1.5V232.3"></path>
		</g>
	</g>
</g>
</svg>
