<?xml version="1.0" encoding="UTF-8"?><svg id="Layer_2" xmlns="http://www.w3.org/2000/svg" viewBox="0 0 768.11 904.02"><defs><style>.cls-1{fill:#d0e72f;}.cls-2{fill:#fff;}</style></defs><g id="Layer_1-2"><polygon class="cls-2" points="676.89 676.89 587.51 676.89 459.89 761.97 459.89 676.89 0 676.89 91.22 818.93 496.47 818.93 551.11 904.02 678.74 818.93 768.11 818.93 768.11 142.05 676.89 0 676.89 676.89"/><polygon class="cls-1" points="86.65 429.48 223.67 329.83 365.57 434.89 310.87 266.19 450.6 164.37 277.56 164.37 224.22 0 171.41 164.37 0 164.37 138.64 267 86.65 429.48"/><polygon class="cls-2" points="223.25 359.01 222.66 359.44 223.83 359.44 223.25 359.01"/><polygon class="cls-2" points="385.62 308.21 587.54 308.21 587.54 265.65 394.21 265.65 375.1 278.85 385.62 308.21"/><polygon class="cls-2" points="587.54 402 587.54 359.44 401.23 359.44 415.03 402 587.54 402"/><polygon class="cls-2" points="223.27 380.72 222.69 381.22 194.1 402 251.35 402 223.27 380.72"/><rect class="cls-2" x="115.12" y="453.24" width="472.42" height="42.56"/><rect class="cls-2" x="112.25" y="547.03" width="338.35" height="42.56"/></g></svg>