<?xml version="1.0" encoding="UTF-8"?>
<!-- Generator: Adobe Illustrator 28.0.0, SVG Export Plug-In . SVG Version: 6.00 Build 0)  -->
<svg xmlns="http://www.w3.org/2000/svg" xmlns:xlink="http://www.w3.org/1999/xlink" version="1.1" id="Layer_1" x="0px" y="0px" viewBox="0 0 210 130" style="enable-background:new 0 0 210 130;" xml:space="preserve">
<style type="text/css">
	.st0{fill:#004F5D;}
	.st1{fill:none;stroke:#083744;stroke-width:4.3485;stroke-miterlimit:10;}
	.st2{fill:#FFFFFF;}
	.st3{fill:#CCE32F;}
	.st4{fill:#083744;}
	.st5{fill:none;stroke:#083744;stroke-width:4.3485;stroke-linecap:round;stroke-miterlimit:10;}
	.st6{fill-rule:evenodd;clip-rule:evenodd;fill:none;stroke:#083744;stroke-width:4.3485;stroke-miterlimit:10;}
	.st7{fill:#083844;}
	.st8{fill:#FFFFFF;stroke:#083744;stroke-width:3.9239;stroke-linecap:square;stroke-miterlimit:10;}
	.st9{fill:none;stroke:#083744;stroke-width:3.9239;stroke-linecap:square;stroke-miterlimit:10;}
	.st10{fill:#FFFFFF;stroke:#FFFFFF;stroke-width:0.4461;stroke-miterlimit:10;}
</style>
<g>
	<g>
		<g>
			<path class="st0" d="M49.6,33.8C48.8,35.3,38.3,55,33.7,63.5c-0.2,0.3-0.1,0.5,0,0.8c4.5,8.3,13.5,25.2,13.6,25.4     c0.1-0.2,9.1-17,13.6-25.4c0.2-0.3,0.2-0.5,0-0.8c-2.6-4.7-5.1-9.5-7.6-14.2c-0.2-0.3-0.2-0.5,0-0.8c0.7-1.3,1.4-2.5,2.1-3.9     c0.1,0.2,6.9,12.8,10.2,19c0.1,0.3,0.2,0.5,0,0.7c-5.2,9.8-10.5,19.6-15.7,29.4c-0.1,0.3-0.3,0.4-0.6,0.4c-1.3,0-2.6,0-3.9,0     c-0.2,0-0.4-0.1-0.5-0.3C39.6,83.9,34.3,74,29.1,64.2c-0.1-0.2-0.1-0.4,0-0.6c5.3-9.8,10.5-19.7,15.8-29.5     c0.1-0.1,0.2-0.3,0.3-0.3C46.7,33.8,48.1,33.8,49.6,33.8z"></path>
			<path class="st0" d="M55.6,39.8c-2.4,4.5-9.1,16.9-12.7,23.7c-0.2,0.3-0.2,0.5,0,0.8c2.6,4.7,5.1,9.5,7.6,14.2     c0.2,0.3,0.2,0.5,0,0.8c-0.7,1.3-1.4,2.5-2.1,3.9c-0.1-0.2-6.9-12.8-10.2-19c-0.1-0.3-0.2-0.5,0-0.7C43.5,53.8,48.8,44,54,34.2     c0.1-0.3,0.3-0.4,0.6-0.4c1.3,0,2.6,0,3.9,0c0.2,0,0.4,0.1,0.5,0.3c5.3,9.8,10.5,19.7,15.8,29.5c0.1,0.2,0.1,0.4,0,0.6     C69.5,74,64.3,83.9,59,93.7c-0.1,0.1-0.2,0.3-0.3,0.3c-1.4,0-2.9,0-4.4,0c0.1-0.2,10.7-20,15.9-29.7c0.2-0.3,0.1-0.5,0-0.8     c-4.5-8.3-13.5-25.2-13.6-25.4C56.5,38.2,56.2,38.8,55.6,39.8"></path>
		</g>
	</g>
	<g>
		<polygon class="st0" points="181,57.6 181,59.9 176.2,59.9 176.2,70 173,70 173,59.9 168.2,59.9 168.2,57.6   "></polygon>
		<polygon class="st0" points="169.6,67.7 169.6,70 159.3,70 159.3,57.6 162.5,57.6 162.5,67.7   "></polygon>
		<polygon class="st0" points="107.3,67.7 107.3,70 96.5,70 96.5,57.6 107.1,57.6 107.1,59.9 99.7,59.9 99.7,62.6 106.4,62.6     106.4,64.9 99.7,64.9 99.7,67.7   "></polygon>
		<path class="st0" d="M90.7,65.4c1.4-0.8,2.2-2.2,2.2-3.8c0-1.3-0.4-2.3-1.2-3c-0.9-0.8-2.2-1.1-4.3-1.1H80l-0.1,0.8    c0,0,0.1,0.2,0.3,0.5c0.2,0.4,0.2,0.5,0.2,0.8V70h3.2v-4h4l2.2,4h3.6L90.7,65.4z M89,63.4c-0.2,0.2-0.5,0.4-1,0.4h-4.4V60h3.5    c1,0,1.6,0.1,2,0.4c0.4,0.3,0.5,0.7,0.5,1.4C89.6,62.5,89.4,63,89,63.4"></path>
		<path class="st0" d="M120.8,57.6v8.3c-0.8-1-1.5-1.9-2.9-3.3c-1.1-1.2-3.4-3.7-4.5-4.9h-3.1l-0.1,0.7c0,0,0.1,0.2,0.3,0.5    c0.2,0.3,0.2,0.4,0.2,0.6l0,10.6l2.9,0v-8.2c0.6,0.8,1.6,2,2.3,2.7c1.4,1.5,3.4,3.8,5.1,5.5h2.8V57.6L120.8,57.6z"></path>
		<path class="st0" d="M152.5,57.6v7.6c0,0.8-0.2,1.4-0.6,1.7c-0.5,0.5-1.4,0.7-2.6,0.7c-1.3,0-2.2-0.2-2.7-0.7    c-0.4-0.4-0.6-0.9-0.6-1.7v-7.6h-3.6l-0.1,0.7c0,0,0.1,0.2,0.3,0.5c0.2,0.3,0.2,0.4,0.2,0.6c0,0,0,5.9,0,5.9    c0,3.3,2.2,4.9,6.5,4.9h0.1c4.3,0,6.3-1.6,6.3-4.9v-7.7H152.5z"></path>
		<path class="st0" d="M135.6,57.6h-4c-1.2,2.5-3.4,7.2-5.4,12.4h3.2c0.3-0.7,0.5-1.4,0.8-2.2h6.6c0.3,0.7,0.6,1.4,0.8,2.2h3.2    C138.9,64.8,136.8,60.1,135.6,57.6 M131.2,65.5c0.9-2.1,1.7-4.1,2.4-5.7c0.7,1.6,1.5,3.6,2.4,5.7H131.2z"></path>
	</g>
</g>
</svg>
