<?xml version="1.0" encoding="UTF-8"?>
<!-- Generator: Adobe Illustrator 28.0.0, SVG Export Plug-In . SVG Version: 6.00 Build 0)  -->
<svg xmlns="http://www.w3.org/2000/svg" xmlns:xlink="http://www.w3.org/1999/xlink" version="1.1" id="Layer_1" x="0px" y="0px" viewBox="0 0 210 130" style="enable-background:new 0 0 210 130;" xml:space="preserve">
<style type="text/css">
	.st0{fill:#004F5D;}
	.st1{fill:none;stroke:#083744;stroke-width:4.3485;stroke-miterlimit:10;}
	.st2{fill:#FFFFFF;}
	.st3{fill:#CCE32F;}
	.st4{fill:#083744;}
	.st5{fill:none;stroke:#083744;stroke-width:4.3485;stroke-linecap:round;stroke-miterlimit:10;}
	.st6{fill-rule:evenodd;clip-rule:evenodd;fill:none;stroke:#083744;stroke-width:4.3485;stroke-miterlimit:10;}
	.st7{fill:#083844;}
	.st8{fill:#FFFFFF;stroke:#083744;stroke-width:3.9239;stroke-linecap:square;stroke-miterlimit:10;}
	.st9{fill:none;stroke:#083744;stroke-width:3.9239;stroke-linecap:square;stroke-miterlimit:10;}
	.st10{fill:#FFFFFF;stroke:#FFFFFF;stroke-width:0.4461;stroke-miterlimit:10;}
</style>
<g>
	<g>
		<path class="st0" d="M22.8,80.7c0,0.9-0.7,1.6-1.6,1.6c-0.9,0-1.6-0.7-1.6-1.6s0.7-1.6,1.6-1.6C22.1,79,22.8,79.7,22.8,80.7     M19.8,80.7c0,0.8,0.6,1.4,1.4,1.4c0.8,0,1.4-0.6,1.4-1.4s-0.6-1.4-1.4-1.4C20.4,79.3,19.8,79.9,19.8,80.7 M20.8,81.6h-0.2v-1.9    h0.7c0.4,0,0.6,0.2,0.6,0.5c0,0.3-0.2,0.5-0.5,0.5l0.6,0.8h-0.3l-0.5-0.8h-0.4V81.6z M21.1,80.6c0.3,0,0.6,0,0.6-0.3    c0-0.3-0.2-0.3-0.4-0.3h-0.4v0.7H21.1z"></path>
		<path class="st0" d="M35.5,60.1h11.1v11.1h-4.4c0-0.1,0-0.4,0-0.5c0-2.6-2.2-4.9-4.4-6.1c-1.6-0.8-3-1.4-4.6-2.1    c-1.6-0.7-3-1.3-4.6-2.1c-2.2-1.1-4.4-3.4-4.4-6.1c0-2.3,1.5-4.2,3.6-4.8c1.4-0.5,2.9-0.6,4.4-0.6h3.2V60.1z"></path>
		<path class="st0" d="M24.4,71.2H13.3V60.1h4.4c0,0.1,0,0.4,0,0.5c0,2.6,2.2,4.9,4.4,6.1c1.6,0.8,3,1.4,4.6,2.1    c1.6,0.7,3,1.3,4.6,2.1c2.2,1.1,4.4,3.4,4.4,6.1c0,2.3-1.5,4.2-3.6,4.8c-1.4,0.5-2.9,0.6-4.4,0.6h-3.2V71.2z"></path>
		<path class="st0" d="M31.3,70.8c-1.6-0.8-3-1.4-4.6-2.1c-1.6-0.7-3-1.3-4.6-2.1c-2.2-1.1-4.4-3.4-4.4-6.1c0-0.1,0-0.4,0-0.5v0    h-4.4v11.1h11.1v11.1h3.2c1.5,0,3-0.1,4.4-0.6c0.1,0,0.1,0,0.2-0.1c0,0,0,0,0,0c0.1,0,0.1,0,0.2-0.1c0,0,0,0,0,0    c0,0,0.1,0,0.1-0.1c0,0,0,0,0.1,0c0,0,0.1,0,0.1-0.1c0,0,0,0,0.1,0c0,0,0.1,0,0.1-0.1c0,0,0,0,0.1,0c0,0,0.1,0,0.1-0.1    c0,0,0.1,0,0.1,0c0,0,0.1,0,0.1,0c0,0,0.1,0,0.1-0.1c0,0,0,0,0.1,0c0,0,0.1,0,0.1-0.1c0,0,0,0,0,0c0.2-0.1,0.3-0.2,0.5-0.4    c0.1-0.1,0.1-0.1,0.2-0.2c0,0,0,0,0,0c0,0,0.1-0.1,0.1-0.1c0,0,0,0,0,0c0,0,0.1-0.1,0.1-0.1c0,0,0,0,0,0l0,0    c0.7-0.9,1.1-2,1.1-3.2C35.6,74.2,33.5,71.9,31.3,70.8"></path>
	</g>
	<g>
		<path class="st0" d="M23.2,65.7c1.6,0.8,3,1.4,4.6,2.1c1.6,0.7,3,1.3,4.6,2.1c2.2,1.1,4.4,3.4,4.4,6.1c0,0.8-0.2,1.5-0.5,2.2    l0.9-1c0.2-0.6,0.4-1.2,0.4-1.9c0-2.6-2.2-4.9-4.4-6.1c-1.6-0.8-3-1.4-4.6-2.1c-1.6-0.7-3-1.3-4.6-2.1c-2.2-1.1-4.4-3.4-4.4-6.1    c0-0.3,0-0.6,0.1-0.9l-0.8,0.9c0,0.2,0,0.5,0,0.7C18.8,62.2,20.9,64.5,23.2,65.7"></path>
		<path class="st0" d="M25,63.9c1.6,0.8,3,1.4,4.6,2.1c1.6,0.7,3,1.3,4.6,2.1c2.2,1.1,4.4,3.4,4.4,6.1c0,0.5-0.1,1-0.2,1.5l0.8-0.9    c0.1-0.4,0.2-0.8,0.1-1.2c0-2.6-2.2-4.9-4.4-6.1c-1.6-0.8-3-1.4-4.6-2.1c-1.6-0.7-3-1.3-4.6-2.1c-2.2-1.1-4.4-3.4-4.4-6.1    c0-0.5,0.1-1,0.2-1.4l-0.8,0.9c-0.1,0.4-0.1,0.8-0.1,1.2C20.6,60.5,22.8,62.8,25,63.9"></path>
		<path class="st0" d="M26.9,62.2c1.6,0.8,3,1.4,4.6,2.1c1.6,0.7,3,1.3,4.6,2.1c2.2,1.1,4.4,3.4,4.4,6.1c0,0.3,0,0.6-0.1,0.9    l0.8-0.9c0-0.2,0.1-0.5,0-0.7c0-2.6-2.2-4.9-4.4-6.1c-1.6-0.8-3-1.4-4.6-2.1c-1.6-0.7-3-1.3-4.6-2.1c-2.2-1.1-4.4-3.4-4.4-6.1    c0-0.8,0.2-1.5,0.5-2.1l-0.8,1l0,0c-0.2,0.6-0.3,1.2-0.3,1.8C22.5,58.8,24.6,61.1,26.9,62.2"></path>
		<path class="st0" d="M58.9,65.5c0,2.3,1.8,3.2,3.9,3.2c1.3,0,3.4-0.4,3.4-2.2c0-1.9-2.6-2.2-5.2-2.9c-2.6-0.7-5.2-1.7-5.2-4.9    c0-3.6,3.4-5.3,6.5-5.3c3.6,0,7,1.6,7,5.6h-3.7c-0.1-2.1-1.6-2.6-3.4-2.6c-1.2,0-2.6,0.5-2.6,2c0,1.3,0.8,1.5,5.2,2.6    c1.3,0.3,5.2,1.1,5.2,5.1c0,3.2-2.5,5.6-7.2,5.6c-3.9,0-7.5-1.9-7.4-6.2H58.9z"></path>
		<path class="st0" d="M83.1,71.3h-3.3v-1.8h-0.1c-0.9,1.4-2.4,2.1-3.9,2.1c-3.7,0-4.6-2.1-4.6-5.2v-7.8h3.5v7.1    c0,2.1,0.6,3.1,2.2,3.1c1.9,0,2.7-1,2.7-3.6v-6.6h3.5V71.3z"></path>
		<path class="st0" d="M89.6,58.7h2.5V61h-2.5v6.2c0,1.2,0.3,1.5,1.5,1.5c0.4,0,0.7,0,1.1-0.1v2.7c-0.6,0.1-1.3,0.1-2,0.1    c-2.1,0-4-0.5-4-3V61h-2.1v-2.3h2.1v-3.8h3.5V58.7z"></path>
		<path class="st0" d="M97.7,58.7h2.5V61h-2.5v6.2c0,1.2,0.3,1.5,1.5,1.5c0.4,0,0.7,0,1.1-0.1v2.7c-0.6,0.1-1.3,0.1-2,0.1    c-2.1,0-4-0.5-4-3V61h-2.1v-2.3h2.1v-3.8h3.5V58.7z"></path>
		<path class="st0" d="M104.3,65.9c0.1,2.2,1.2,3.2,3.1,3.2c1.4,0,2.5-0.9,2.7-1.6h3c-1,3-3,4.2-5.9,4.2c-4,0-6.4-2.7-6.4-6.6    c0-3.8,2.6-6.7,6.4-6.7c4.3,0,6.4,3.6,6.1,7.5H104.3z M109.9,63.7c-0.3-1.8-1.1-2.7-2.8-2.7c-2.2,0-2.8,1.7-2.9,2.7H109.9z"></path>
		<path class="st0" d="M114.8,58.7h3.3v2.3h0c0.6-1.6,2.3-2.7,4-2.7c0.2,0,0.5,0,0.8,0.1v3.2c-0.3-0.1-0.8-0.1-1.2-0.1    c-2.5,0-3.4,1.8-3.4,4v5.7h-3.5V58.7z"></path>
		<polygon class="st0" points="127.7,53.9 131.5,53.9 131.5,60.6 138.6,60.6 138.6,53.9 142.4,53.9 142.4,71.3 138.6,71.3     138.6,63.8 131.5,63.8 131.5,71.3 127.7,71.3   "></polygon>
		<path class="st0" d="M147.4,65.9c0.1,2.2,1.2,3.2,3.1,3.2c1.4,0,2.5-0.9,2.7-1.6h3c-1,3-3,4.2-5.9,4.2c-4,0-6.4-2.7-6.4-6.6    c0-3.8,2.6-6.7,6.4-6.7c4.3,0,6.4,3.6,6.1,7.5H147.4z M153,63.7c-0.3-1.8-1.1-2.7-2.8-2.7c-2.2,0-2.8,1.7-2.9,2.7H153z"></path>
		<path class="st0" d="M157.7,62.6c0.2-3.2,3.1-4.2,5.9-4.2c2.5,0,5.5,0.6,5.5,3.6v6.6c0,1.1,0.1,2.3,0.4,2.8h-3.5    c-0.1-0.4-0.2-0.8-0.2-1.2c-1.1,1.1-2.7,1.6-4.2,1.6c-2.4,0-4.3-1.2-4.3-3.8c0-2.9,2.1-3.5,4.3-3.8c2.1-0.3,4.1-0.2,4.1-1.7    c0-1.5-1-1.7-2.2-1.7c-1.3,0-2.2,0.5-2.3,1.9H157.7z M165.7,65.2c-0.6,0.5-1.8,0.5-2.9,0.7c-1.1,0.2-2,0.6-2,1.9    c0,1.3,1,1.6,2.1,1.6c2.7,0,2.8-2.1,2.8-2.9V65.2z"></path>
		<rect x="171.3" y="53.9" class="st0" width="3.5" height="17.4"></rect>
		<path class="st0" d="M181.3,58.7h2.5V61h-2.5v6.2c0,1.2,0.3,1.5,1.5,1.5c0.4,0,0.7,0,1.1-0.1v2.7c-0.6,0.1-1.3,0.1-2,0.1    c-2.1,0-4-0.5-4-3V61h-2.1v-2.3h2.1v-3.8h3.5V58.7z"></path>
		<path class="st0" d="M184.8,53.9h3.5v6.6h0.1c0.9-1.4,2.4-2.1,3.7-2.1c3.7,0,4.6,2.1,4.6,5.2v7.8h-3.5v-7.1c0-2.1-0.6-3.1-2.2-3.1    c-1.9,0-2.7,1-2.7,3.6v6.6h-3.5V53.9z"></path>
	</g>
</g>
</svg>
