<?xml version="1.0" encoding="UTF-8"?>
<!-- Generator: Adobe Illustrator 28.0.0, SVG Export Plug-In . SVG Version: 6.00 Build 0)  -->
<svg xmlns="http://www.w3.org/2000/svg" xmlns:xlink="http://www.w3.org/1999/xlink" version="1.1" id="Layer_1" x="0px" y="0px" viewBox="0 0 770 400" style="enable-background:new 0 0 770 400;" xml:space="preserve">
<style type="text/css">
	.st0{fill:#EAFF59;}
	.st1{clip-path:url(#SVGID_00000139291879842154285460000006765747663427715240_);}
	.st2{fill:#004F5D;}
	.st3{fill:none;stroke:#083744;stroke-width:4.3485;stroke-miterlimit:10;}
	.st4{fill:#FFFFFF;}
	.st5{fill:#CCE32F;}
	.st6{fill:#083744;}
	.st7{fill:none;stroke:#083744;stroke-width:4.3485;stroke-linecap:round;stroke-miterlimit:10;}
	.st8{fill-rule:evenodd;clip-rule:evenodd;fill:none;stroke:#083744;stroke-width:4.3485;stroke-miterlimit:10;}
	.st9{fill:#083844;}
	.st10{fill:#FFFFFF;stroke:#083744;stroke-width:3.9239;stroke-linecap:square;stroke-miterlimit:10;}
	.st11{fill:none;stroke:#083744;stroke-width:3.9239;stroke-linecap:square;stroke-miterlimit:10;}
	.st12{fill:#FFFFFF;stroke:#FFFFFF;stroke-width:0.4461;stroke-miterlimit:10;}
	.st13{clip-path:url(#SVGID_00000061469832318425523730000008737574100143777681_);fill:#EAFF59;}
	
		.st14{clip-path:url(#SVGID_00000061469832318425523730000008737574100143777681_);fill:#EAFF59;stroke:#EAFF59;stroke-width:4.7872;stroke-miterlimit:10;}
	.st15{clip-path:url(#SVGID_00000061469832318425523730000008737574100143777681_);}
	.st16{clip-path:url(#SVGID_00000057115157766634133380000013274929492669284240_);}
	.st17{fill:#0B333E;}
	.st18{fill:none;stroke:#FFFFFF;stroke-width:2;stroke-miterlimit:10;}
	.st19{clip-path:url(#SVGID_00000012446068183869740940000005647202928388518816_);}
	.st20{clip-path:url(#SVGID_00000053516603590620309860000018410898954003992243_);}
	.st21{fill:#12333E;}
</style>
<g>
	<defs>
		<rect id="SVGID_00000160165705419957057850000010424774126903775903_" x="-0.4" width="770.4" height="399.9"></rect>
	</defs>
	<clipPath id="SVGID_00000178915490311784272800000008604200089538068907_">
		<use xlink:href="#SVGID_00000160165705419957057850000010424774126903775903_" style="overflow:visible;"></use>
	</clipPath>
	<path style="clip-path:url(#SVGID_00000178915490311784272800000008604200089538068907_);fill:#EAFF59;" d="M544.4,97.6h-315   c-18.3,0-33.2-15-33.2-33.2v-5.9c0-18.3,15-33.2,33.2-33.2h315c18.3,0,33.2,15,33.2,33.2v5.9C577.7,82.7,562.7,97.6,544.4,97.6z"></path>
	
		<path style="clip-path:url(#SVGID_00000178915490311784272800000008604200089538068907_);fill:#EAFF59;stroke:#EAFF59;stroke-width:4.7872;stroke-miterlimit:10;" d="   M498.7,179.8c3.5,18.2,6.7,36.6,8.8,55.1c0.7,6,6.3,35.1-2.7,35.6c-12,0.6-25.4-4.9-37.6-7.7c-16.3-3.7-30.8-1.7-44.2,8.6   c-20.4,15.7-33.6,46.7-45.6,72c-16.7,35.3-31.7,73.4-52.9,104.1c-19.8,28.6-52.8,37.7-83.2,36.8c-34.5-1-68.8-14.8-100.8-31.1   c-30.5-15.6-60.4-35-90.7-51.3c-20.4-11-43.9-19.5-64.2-25.7c-6.7-2-11.7-1-13.7,5.5c-0.6-0.8-1.3-1.6-1.7-2.3   c-12.4-21.2-23.5-51.1-33.3-77.3c-7.4-19.9-12.9-40.7-16.5-61.9c-3.6-21-5.4-42.8-5.4-64.3c0-21.4,1.8-43.3,5.4-64.4   c3.6-21.1,9-42.2,16-62.1c14.1-39.9,35-76.6,61-107.1c26-30.5,57.3-55.1,91.3-71.6c17-8.2,34.9-14.6,52.9-18.8   c17.9-4.2,36.4-6.2,54.8-6.3c1.5,0,3,0,4.6,0.1c0-2.9,0-4.4,0-7.3c-1.5,0-3-0.1-4.6-0.1c0,0,0,0,0,0c-19,0.3-37.7,2.2-56.1,6.5   C122-151,103.7-144.4,86.3-136C51.6-119.1,19.6-94-7-62.8C-33.6-31.6-55,5.9-69.4,46.7c-7.2,20.4-12.7,41.9-16.4,63.5   c-3.6,21.5-5.5,43.9-5.5,65.8c0,21.9,1.9,44.2,5.5,65.7c3.7,21.7,9.3,43.1,16.9,63.5c10.1,27.3,21.9,58.2,35.1,80.1   c0.5,0.8,1.2,1.6,1.8,2.3c1.5-6.9,6.4-8.3,13.5-6.3c20,5.4,42.8,15.5,62.2,27.1c29.9,17.8,59.4,39,89.6,56.1   c32.1,18.2,66.6,33.7,101.9,35.7c32.7,1.9,65.5-7.9,87.5-37.5c24.1-32.4,41.5-73.2,60.5-111.1c13.1-26,27.5-58.4,49.2-73.8   c14-9.9,28.8-10.9,45.5-6.9c11.4,2.8,25.7,9.8,37.1,4.7c13.9-6.2-8-82.2-11.2-96.1c-6.2-27.6-14.8-54.8-17-83.4   c-1.4-17.9,0.6-35.3,1.8-53.1c-2.2,0.5-3.3,0.7-5.6,1.2c-0.5,18.2-1.5,36.2,0.2,54.4C485.8,126.5,493.5,152.9,498.7,179.8z"></path>
	
		<path style="clip-path:url(#SVGID_00000178915490311784272800000008604200089538068907_);fill:#EAFF59;stroke:#EAFF59;stroke-width:4.7872;stroke-miterlimit:10;" d="   M426.5,152.7c-6.9,17.9-25.4,29.9-43.2,37.4c-16.1,6.7-26.8,10-44.6,4.7c-9.3-2.7-18.1-6-27.9-7.5c-17.1-2.6-34.4-0.9-48.3,9.1   c-33.6,24.1-32.2,69.1-48.5,100c-11.1,21.1-28.7,37.8-51.8,48.6c-23.4,11-50.3,15.5-77.1,17.6c-26.9,2.1-54.7,1.8-82,1.8   c-23.5,0-47.1,0.5-70.6,1.3c-16.7,0.6-35.9,0.9-46.3-13.2c-14.8-20-27.6-42.8-38.7-64c-7.7-14.9-13.9-31.1-18-47.2   c-4.2-16.2-6.6-33.4-7.1-50.1c-0.5-16.8,1.1-33.9,4.1-50.7c2.9-16.6,8.4-33.2,15.1-49c13.8-32.1,34.9-62.1,60.6-86.7   c26.1-25,58-45.5,92.7-59.6c17.2-7,35.7-12.7,54.1-16.5c18.4-3.8,37.6-5.9,56.5-6.6c2-0.1,4.1-0.1,6.1-0.1c-0.1-3-0.1-4.6-0.2-7.6   c-2,0-4.1,0-6.1,0.1c0,0,0,0,0,0c-19.7,0.8-39.2,2.9-58.2,6.8c-19,3.9-38,9.7-55.7,16.9C-44.2-47-76.9-25.9-103.8-0.2   c-26.9,25.7-48.2,56.4-62.4,89.3c-7,16.2-12.3,33.4-15.5,50.5c-3.3,17.1-4.8,35-4.2,52.3c0.5,17.2,3,34.8,7.3,51.6   c4.2,16.6,10.5,33.3,18.5,48.6c11.2,21.4,23.9,44.3,38.3,64.6c9,12.6,29.2,11.8,43,12c24.4,0.3,50.1,0.1,75.1,1.2   c29.4,1.3,59.3,3.2,88.4,2.5c28.8-0.7,58.3-3.8,84.2-14c24.9-9.8,45.2-26.5,57.8-48.1c18.8-32.2,17.5-78.9,51.6-105.3   c13.3-10.3,31.6-12.7,48.4-10.3c10.3,1.4,20.3,4.6,29.8,8.2c15.2,5.7,24.5,3.6,38.6-3.5c18.1-9.1,35.3-23.6,40.9-43   c9.3-32.1-13.2-69-19.6-101.1c-3.5,0.8-5.2,1.2-8.7,2C414.1,86.9,437.8,123.2,426.5,152.7z"></path>
	<g style="clip-path:url(#SVGID_00000178915490311784272800000008604200089538068907_);">
		<defs>
			<polygon id="SVGID_00000012471421945645375510000008460515400520481206_" points="573.7,59 232.5,59 123.4,82.9 10.4,169.4      -221.6,169.4 -234.1,527.5 573.7,527.5    "></polygon>
		</defs>
		<clipPath id="SVGID_00000005232270598373063200000000498479974359632793_">
			<use xlink:href="#SVGID_00000012471421945645375510000008460515400520481206_" style="overflow:visible;"></use>
		</clipPath>
		<g style="clip-path:url(#SVGID_00000005232270598373063200000000498479974359632793_);">
			<g>
				<g>
					<g>
						<path class="st17" d="M505.8,178.4c4.2,18.8,8.1,37.9,10.7,57.1c0.8,6.2,7.7,36.4-3.3,36.9c-14.6,0.6-30.9-5.1-45.7-7.9        c-19.9-3.9-37.5-1.7-53.7,8.9c-24.8,16.3-40.9,48.4-55.5,74.6c-20.4,36.6-38.6,76.1-64.4,107.9c-24.1,29.7-64.2,39-101.2,38.1        c-42-1-83.7-15.3-122.6-32.3c-37.2-16.2-73.5-36.2-110.4-53.2c-24.8-11.4-53.4-20.2-78.1-26.6c-8.2-2.1-14.2-1.1-16.7,5.6        c-0.7-0.8-1.5-1.6-2.1-2.4c-15.1-22-28.6-52.9-40.5-80.1c-9-20.6-15.7-42.2-20.1-64.2c-4.3-21.8-6.6-44.4-6.6-66.6        c0-22.2,2.2-44.9,6.6-66.7c4.3-21.9,11-43.7,19.5-64.3c17.1-41.3,42.6-79.4,74.3-111C-72.5-99.2-34.4-124.7,7-141.8        c20.6-8.5,42.5-15.2,64.4-19.5c21.8-4.3,44.3-6.4,66.7-6.5c1.8,0,3.7,0,5.5,0.1c0-3,0-4.6,0-7.6c-1.8,0-3.7-0.1-5.5-0.1        c0,0,0,0,0,0c-23.1,0.3-45.9,2.3-68.2,6.7c-22.4,4.4-44.7,11.2-65.8,19.9c-42.3,17.5-81.2,43.5-113.6,75.9        c-32.4,32.3-58.4,71.2-75.9,113.5c-8.7,21.1-15.5,43.4-19.9,65.8c-4.4,22.3-6.7,45.5-6.7,68.2c0,22.7,2.3,45.8,6.7,68.1        c4.5,22.5,11.3,44.7,20.5,65.8c12.3,28.3,26.7,60.4,42.7,83c0.6,0.8,1.4,1.6,2.1,2.4c1.9-7.2,7.8-8.6,16.4-6.6        c24.4,5.6,52.1,16.1,75.7,28.1c36.4,18.5,72.2,40.4,109,58.2c39.1,18.9,81.1,34.9,124,37c39.8,2,79.7-8.2,106.5-38.8        c29.4-33.6,50.5-75.9,73.6-115.1c15.9-27,33.4-60.5,59.8-76.4c17-10.3,35.1-11.3,55.3-7.1c13.9,2.9,31.2,10.1,45.2,4.8        c16.9-6.4-9.8-85.2-13.6-99.6c-7.6-28.6-18-56.7-20.7-86.5c-1.7-18.5,0.7-36.6,2.1-55c-2.7,0.5-4.1,0.7-6.8,1.3        c-0.7,18.9-1.9,37.5,0.3,56.4C490.1,123.1,499.5,150.5,505.8,178.4z"></path>
					</g>
					<g>
						<path class="st17" d="M487.5,175.4c3.2,28,3.1,56-4.4,83.7c-1.4-0.4-2.8-0.9-4.1-1.3c-33.4-10.9-67.3-25.7-97.3-3        c-46.3,35.1-63.2,109.9-90,157.8c-14.3,25.6-62.9,37.4-89.3,38.9c-38.4,2.1-77.6-7.6-114.6-19.5        c-36.4-11.7-72.4-26.8-108.5-39.5c-27-9.5-57.2-18.3-82.1-21.7c-10.6-1.4-17.3,2.7-20.7-0.4c-13.3-12.7-25.2-49.1-36.2-73.9        c-8.5-19.1-14.7-39.4-18.8-59.8c-4.1-20.4-6.2-41.7-6.2-62.5c0-20.9,2.1-42.2,6.2-62.8c4.1-20.6,10.3-41.1,18.4-60.4        c16.2-38.9,40.2-74.8,70-104.6c29.8-29.8,65.7-53.8,104.7-69.9c19.4-8,40-14.3,60.6-18.4c20.6-4.1,41.8-6,62.9-6.2        c1.8,0,3.7,0,5.5,0.1c0-3,0-4.6,0-7.6c-1.8,0-3.7-0.1-5.5-0.1c0,0,0,0,0,0c-21.8,0.3-43.3,2.1-64.4,6.3        c-21.1,4.2-42.2,10.6-62.1,18.8C-28.2-114.1-65-89.5-95.5-59C-126-28.5-150.6,8.2-167.1,48.1c-8.2,19.9-14.6,40.8-18.8,61.9        c-4.2,21-6.3,42.9-6.3,64.3c0,21.4,2.1,43.1,6.3,64.1c4.2,21,10.6,41.8,19.3,61.5c11.3,25.7,23.7,55.1,37.6,76        c0.6,0.8,1.5,1.7,2.2,2.6c3.9-5.6,10.2-6,17.6-3.8c25.1,7.6,54.6,13.4,81,23.8c36.7,14.3,73.1,31.4,110.1,44.8        c38,13.8,78.4,25.3,118.3,24.4c31-0.6,74.5-10.1,93.7-38.1c20.1-29.5,34.9-64.3,51.4-96.5c12.8-25,26.9-54.7,49.3-70.9        c31.1-22.6,64.4-6.6,98,1.4c13.4,3.2,4.3-75.3,2.5-86.5c-7.3-45.9-18.6-89.6-19.5-136.9c-2.9,0.6-4.3,0.8-7.2,1.4        C470.2,87.3,482.5,130.9,487.5,175.4z"></path>
					</g>
					<g>
						<path class="st17" d="M467.1,168.9c-0.6,26.3-13.2,68.3-23.4,71.9c-14.6,5.1-64.1-31.9-96.7-6.3        c-38.6,30.4-43.2,98.3-67.4,133.1c-16.1,23.1-47.4,37.9-78.1,42.6c-33.3,5.1-68.5,0.3-102-6.8c-33.5-7.1-67.2-17.2-100.6-25.7        c-26.9-6.8-55.4-11.6-82.1-15c-5.6-0.7-21.2,0.7-24.6-5.6c-12.1-22.5-23.7-46.5-33.8-69.7c-7.7-17.6-13.6-36.5-17.4-55.4        c-3.9-19-5.8-39-5.9-58.4c0-19.5,2-39.6,5.8-58.7c3.8-19.2,9.7-38.4,17.2-56.4C-126.6,22-104-11.7-76.1-39.6        c27.9-27.9,61.7-50.5,98.2-65.6c18.2-7.5,37.6-13.4,56.9-17.2c19.3-3.8,39.3-5.6,59-5.8c1.8,0,3.7,0,5.5,0.1c0-3,0-4.6,0-7.6        c-1.8,0-3.7-0.1-5.5-0.1c0,0,0,0,0,0c-20.5,0.4-40.8,2-60.5,5.9c-19.8,3.9-39.6,9.9-58.3,17.7C-18.3-96.8-52.8-73.7-81.5-45        c-28.7,28.7-51.8,63.2-67.3,100.6c-7.7,18.6-13.7,38.3-17.6,58c-3.9,19.7-5.9,40.3-5.9,60.3c0,19.9,2,40.4,6,60        c3.9,19.4,10,38.9,17.9,57.1c10.4,23.7,23,47.9,34.5,71.1c2.4,4.9,20.1,3.2,22.6,3.5c27.6,3.3,55.6,9.8,82.8,17.7        c34.6,10.1,69.4,22.1,104.2,31c35,8.9,71.8,15.6,107.3,11.6c28.9-3.2,67.3-15.7,82.7-41c24.7-40.9,34.4-110.7,75-142.3        c29.5-23,81.3,7.6,96.6,5.8c11-1.3,18.9-54.8,17.9-76.6c-2-42.6-15.4-84.8-18.8-127.7c-3,0.6-4.5,0.9-7.5,1.6        C452.9,86.6,468,128.6,467.1,168.9z"></path>
					</g>
					<g>
						<path class="st17" d="M445.2,160.1c-3.7,21.9-16.8,40.2-33.8,52.2c-14.1,9.9-15.9,4.7-30.2-1.6c-8.3-3.7-17.1-7-26.1-8.6        c-15.7-2.8-32.5-0.2-44.8,10.4c-34,29.3-32.8,80-55,113.6c-14.7,22.3-36.8,37.6-62.7,45.2c-27.4,8-57.7,7.7-86.7,5.1        c-29.4-2.7-59.1-8-88.6-12.5c-24.5-3.7-50.3-5.7-74.1-7.7c-7.9-0.7-28.4-0.9-33.5-10.6c-11.2-21.1-23.2-44.6-32.9-66.8        c-7.2-16.3-12.7-34-16.3-51.5c-3.6-17.7-5.5-36.2-5.5-54.3c0-18.1,1.8-36.8,5.4-54.6c3.5-17.8,9.1-35.6,16-52.5        c14-33.9,35.2-65.4,61.4-91.6C-35.9-51.8-4.3-73.2,29.7-87c17.2-7,35.1-12.5,53.2-16.1c18-3.6,36.7-5.3,55.2-5.4        c1.8,0,3.7,0,5.5,0.1c0-3,0-4.6,0-7.6c-1.8,0-3.7-0.1-5.5-0.1c0,0,0,0,0,0c-19.2,0.3-38.2,1.9-56.7,5.6        c-18.5,3.7-37.1,9.3-54.6,16.5c-35,14.5-67.5,36.2-94.3,63c-26.8,26.8-48.4,59.2-63,94.1c-7.2,17.3-12.8,35.7-16.5,54        c-3.6,18.3-5.5,37.5-5.5,56.2c0,18.6,1.9,37.7,5.6,55.9c3.7,18,9.3,36.1,16.7,52.9c9.9,22.5,22.5,46.2,33.1,67.7        c3.9,7.9,24.2,8.1,30.1,8.8c24.9,2.8,51.9,5.7,77.5,10.6c31,5.9,62.4,13.1,93.5,17.4c30.8,4.3,63,6.3,92.8-0.6        c27.6-6.4,52.8-21.5,68.5-44.2c24.1-34.6,23.6-89.3,59.2-120.6c12.4-10.9,29.4-13.8,45.4-11.1c8.9,1.5,17.6,4.7,25.8,8.3        c11.5,5,18.3,10.6,27.6,4.6c15.9-10.2,27.9-35.7,30.3-59.3c3.8-37.8-12.5-77.6-17.2-115.5c-3.1,0.7-4.6,1-7.8,1.7        C433.7,85.7,451.2,124.5,445.2,160.1z"></path>
					</g>
					<g>
						<path class="st17" d="M422.9,150.4c-6.7,17.7-23.7,29.2-40.1,36.2c-14.7,6.3-24.5,9.2-40.5,3.5c-8.4-3-16.3-6.5-25.1-8.3        c-15.4-3-31.1-1.8-44,7.8c-31,23.2-30.9,68.2-46.4,98.7c-10.6,20.8-26.9,37-48.1,47.2c-21.5,10.3-46,14.1-70.3,15.5        c-24.4,1.4-49.5,0.3-74.3-0.4c-21.3-0.6-42.7-0.8-63.9-0.6c-15.1,0.2-32.5-0.1-41.6-14.4c-12.9-20.4-24-43.5-33.5-65.1        c-6.6-15.1-11.8-31.5-15.1-47.7c-3.4-16.3-5.1-33.6-5.2-50.2c0-16.8,1.9-33.9,5-50.6c3.1-16.5,8.4-33,14.9-48.6        c13.3-31.8,33.1-61.1,57.1-85c24.3-24.3,53.7-43.9,85.4-57.1c15.8-6.5,32.7-11.7,49.4-15c16.8-3.3,34.2-4.9,51.4-5        c1.8,0,3.7,0,5.5,0.1c0-3,0-4.6,0-7.6c-1.8,0-3.7-0.1-5.5-0.1c0,0,0,0,0,0c-17.9,0.3-35.6,1.8-52.8,5.2        C68-87.7,50.6-82.5,34.4-75.7C1.7-62.2-28.5-42-53.5-17c-25,24.9-45.1,55.1-58.7,87.6c-6.7,16-11.9,33.1-15.3,50.1        c-3.4,17-5.2,34.8-5.1,52.1c0.1,17.2,1.8,34.9,5.3,51.8c3.4,16.7,8.7,33.6,15.6,49.1c9.6,21.7,20.5,44.9,33.1,65.6        c7.8,12.8,26.2,12.6,38.7,13.1c22.1,0.9,45.4,1.5,68,3.3c26.6,2.1,53.6,4.8,79.9,4.9c26.1,0.1,52.9-2.2,76.6-11.7        c22.8-9.1,41.6-25.2,53.5-46.5C256,270.6,256,224,287.5,198.5c12.3-10,28.9-11.8,44.1-8.9c9.2,1.7,18.2,5.2,26.8,9        c13.6,6.1,22.1,4.2,35-2.5c16.6-8.6,32.6-22.6,38.1-41.9c9.2-31.8-10.2-69.3-15.3-101.6c-3.2,0.7-4.7,1.1-7.9,1.8        C413.3,84.3,433.9,121.2,422.9,150.4z"></path>
					</g>
					<g>
						<path class="st17" d="M358.2,164.4c-15.1,3.3-36.1,9.1-51.6,5.6c-8.3-1.9-16.1-6.2-24.6-8c-14.9-3.2-30.9-3.3-44.3,4.9        c-30.2,18.4-29.4,59.6-40.1,88c-14.8,39.5-48.4,62.2-89.3,72.4c-35.8,8.9-75,12.7-112,15.8c-19.7,1.7-35.9,0.8-47.6-16.6        c-13.3-19.7-25.6-42.8-35-64.3c-12.4-28.2-18.7-59.4-18.8-90.3c-0.1-31.1,6.4-62,18.3-91.2c11.9-29.3,30.8-56.3,52.8-78.3        c22.5-22.5,49.6-40.6,79-52.8c29.4-12.1,61.1-18.2,93.2-18.5c1.8,0,3.7,0,5.5,0.1c0-3,0-4.6,0-7.6c-1.8,0-3.7-0.1-5.5-0.1        c0,0,0,0,0,0C104.7-75.8,72.3-70,42-57.4C11.7-44.9-16.3-26.2-39.5-3c-23,23-41.8,50.9-54.4,80.9        c-12.5,29.6-19,62.1-18.9,94.2c0.1,31.8,6.6,64.1,19.4,93.2c9.5,21.5,21.4,44.7,34.3,64.5c10.4,16.1,27.9,16.9,45.6,16        c40.4-2.2,82.7-3,122.2-9.6c44-7.4,82.5-27.7,100.1-69c12.4-29,12.1-71.5,42.3-91.7c13.2-8.8,29-9.1,44.1-6        c9,1.9,17.2,6.6,26,8.6c14.8,3.4,31.7-1.6,46-5.7c24-6.8,43.3-29.1,41.9-55.2c-1.1-20.2-9.8-40.1-13.5-60        c-3.2,0.7-4.8,1.1-8,1.8c3.7,18.8,13,37.6,13.9,56.8C402.6,140.8,381.1,159.4,358.2,164.4z"></path>
					</g>
					<g>
						<path class="st17" d="M337.7,146.7c-27.9,3.4-58.2,4.2-86.1-2.3c-15.1-3.5-31.6-4.7-46,1.7c-31.3,13.7-28.1,53.9-35.4,80.7        c-9.6,35-31.4,61.8-63.7,78.7c-26.2,13.7-57.2,23.9-86.4,29.4c-23.5,4.5-36.6,2.8-51.3-16.9c-14.5-19.4-27.5-42.1-36.9-63.8        c-11.2-25.9-17.2-54.6-17.3-82.9c-0.1-28.4,5.9-56.9,16.8-83.4c11-26.6,28.2-51.5,48.4-71.6C0.5-4.3,25.5-21,52.5-32.1        c26.9-11.1,56.2-16.7,85.6-17c1.8,0,3.7,0,5.5,0.1c0-3,0-4.6,0-7.6c-1.8,0-3.7-0.1-5.5-0.1c0,0,0,0,0,0        c-30.8,0.6-60.7,6-88.5,17.6C21.7-27.6-4.2-10.3-25.5,11C-46.6,32.1-64,57.7-75.6,85.2c-11.4,27.1-17.4,57-17.4,86.4        c0.1,29.2,6.2,59,17.8,85.7c9.4,21.6,22,44.4,36.2,64c13.8,19.1,27.6,20.2,50.2,17c32.1-4.6,66.3-12.5,96.1-24.6        c35.6-14.4,61.7-40,73-76.7c8.7-27.9,5.9-67.2,37-83.2c14-7.2,30.3-6.3,45.2-2.9c27.8,6.3,54.2,6.4,82.6,2.2        c20.2-3,45.1-15.7,44.3-39.1c-0.6-17.5-10.9-34.8-14.6-51.9c-3.2,0.7-4.8,1.1-8,1.8c3.7,16,14.4,32.6,15.1,49        C382.9,135.4,355.8,144.5,337.7,146.7z"></path>
					</g>
					<g>
						<path class="st17" d="M321.4,134.1c-28.8,1.6-58.1-0.6-86.9-3.5c-18.3-1.8-36.9-6.3-54.9-1c-31.9,9.5-27.4,48.9-32.7,75        c-6.3,31.3-19.5,59.6-42.8,81.3c-17.6,16.4-40.1,31.9-63.1,39.5c-23.2,7.6-37.4,4-52.7-15.6c-15-19.2-28.9-41.1-38.2-63        C-60,223-65.4,197-65.5,171.1c-0.1-25.9,5.2-51.9,15.3-75.8c10.2-24,25.7-46.6,44.1-65c18.8-18.7,41.6-34,66.2-44.2        c24.6-10.2,51.2-15.2,78-15.5c1.8,0,3.7,0,5.5,0.1c0-3,0-4.6,0-7.6c-1.8,0-3.7-0.1-5.5-0.1c0,0,0,0,0,0        c-28.2,0.6-54.9,5.7-80.9,16.1C31.6-10.7,7.6,5.6-11.5,25c-19.2,19.5-35.2,42.6-45.8,67.5c-10.5,24.7-15.9,51.9-15.9,78.7        c0.1,26.8,5.7,53.8,16.3,78.5c9.4,21.9,23,44.1,37.8,63.4c15.3,19.8,28.8,22.6,52.4,16.2c25.2-6.8,51-20.4,71.7-36.1        c26.7-20.2,42.8-48.1,50.2-80.7c6-26.6,1.4-66,33.5-77.2c15.9-5.6,31.2-2.3,47.5,0.1c29.6,4.3,61.3,5.4,91,2.9        c15.2-1.2,44.7-6.1,43.3-26.8c-1-15-12.5-30.2-16.3-44.9c-3.2,0.7-4.7,1.1-7.9,1.8c3.8,13.9,16.2,28.5,17.1,42.5        C364.8,130.5,335.3,133.3,321.4,134.1z"></path>
					</g>
					<g>
						<path class="st17" d="M309.3,126.9c-23.9,0.5-48-1.3-71.8-3.2c-24.1-1.9-50.9-7.8-74.6-3.3c-29.3,5.6-28.9,44.7-32.9,68.3        c-4.7,28-12,56.1-27.3,80c-11,17.2-25,35-43.3,45.5c-19.7,11.3-39.7,2.7-52.7-13.3c-15.2-18.5-28.9-39.2-38.1-61.1        c-9.1-21.7-14.1-45.3-14.1-68.8c-0.1-23.3,4.6-46.8,13.8-68.3C-22.7,81.1-8.7,61,7.9,44.3c17-16.9,37.6-30.7,59.7-39.9        c22.2-9.2,46.1-13.7,70.4-14c1.8,0,3.7,0,5.5,0.1c0-3,0-4.6,0-7.6c-1.8-0.1-3.7-0.1-5.5-0.1c0,0,0,0,0,0        C112.5-16.5,88.4-12,64.7-2.6C41.7,6.5,20.3,21.4,2.5,39c-17.5,17.3-32.2,38.6-41.5,61c-9.4,22.7-14.4,46.9-14.3,71.2        c0.1,24.4,5.2,48.9,14.7,71.4c9.3,22,23.2,43.3,38.4,62c13.8,16.9,31.3,24.7,52.8,14.2C72.8,308.9,90,292,103.1,275        c17.9-23.4,27.4-51.6,32.6-81c4.4-25.1,1.6-64.2,32.4-71.2c21.5-4.9,45.9,0.6,67.7,2.5c25.8,2.3,51.8,4.3,77.7,3.6        c13-0.4,39.8-0.6,38.9-18.2c-0.7-12.5-14.7-26.9-18.5-39.3c-3.1,0.7-4.6,1.1-7.7,1.8c4.2,12.7,17.8,25.1,19.8,37.8        C348.4,127.5,319.8,126.6,309.3,126.9z"></path>
					</g>
					<g>
						<path class="st17" d="M301.3,125.3c-46.8,0.8-99.5-7.1-141.6-3.3c-26.4,2.4-34.8,31.2-39.4,57c-4.5,25.4-8.7,51.2-17.3,75        c-5.9,16.2-14,36-28,47.6c-17,14-41.1-0.6-52.5-10.8c-14.6-13-27.5-36.5-35.8-57.2c-7.9-20-12.5-40.8-12.5-61.9        c-0.1-20.9,4.1-41.8,12.3-61C-5.4,91,7,73.3,21.9,58.3c15.2-15.2,33.5-27.4,53.3-35.6c19.9-8.2,41-12.2,62.8-12.5        c1.8,0,3.7,0,5.5,0.1c0-3,0-4.6,0-7.6c-1.8-0.1-3.7-0.1-5.5-0.1c0,0,0,0,0,0c-23.2,0.7-44.5,4.6-65.8,13        C51.7,23.9,32.4,37.1,16.5,53C0.9,68.6-12.4,87.3-20.6,107.5c-8.4,20.6-12.9,41.9-12.9,63.8c0.1,22.1,4.8,43.7,13.2,64.5        c8.6,21.5,22.1,43,36.7,58.9c11.8,12.8,35.1,24.4,52.7,11.7c15.6-11.2,25.7-30.6,33.4-47.3c11.1-24.1,16-51,20.5-77.3        c4.2-24.6,8-56.3,35.3-62.2c25-5.4,56.9,2,83.3,3.5c20.7,1.2,41.5,2.3,62.2,1.9c9.7-0.2,35.3,1.4,31.8-13.3        C332.8,99.8,318.6,88.3,314,76c-3,0.7-4.5,1-7.4,1.7c2.5,6.1,5.8,11.8,9.5,17.2c3.1,4.5,13,12.4,13.9,18.1        C332.1,127.2,312.3,125.1,301.3,125.3z"></path>
					</g>
					<g>
						<path class="st17" d="M297.3,129.3c-35.4,2.7-72.3,2-107.7,4.6c-16.4,1.2-45-0.3-57.3,12c-7.3,7.3-11,19.6-13.3,29.1        c-5.3,21.7-8,44.8-12.8,66.7c-3.3,14.9-7.7,34-17.5,46C77.5,301.5,58,287,48,280.1c-20.7-14.2-34.1-28.8-43.2-52.5        c-6.8-17.9-10.9-36.5-11-55.2c0-18.3,3.8-36.6,10.8-53.9c7.3-18.1,18.8-31.3,32.4-45.3c13.6-14,27.8-25,45.8-32.2        c17.8-7,36.2-10.6,55.3-10.9c1.8,0,3.7,0.1,5.5,0.1c0-3,0-4.6,0-7.6c-1.8-0.1-3.7-0.1-5.5-0.1c0,0,0,0,0,0        C117.9,23,98.6,26.2,79.9,34C61.4,41.6,44.8,53.1,31,67.3C17.2,81.5,5.1,97-2.4,115.4c-7.4,18.2-11.1,37-11.4,56.6        c-0.3,19.8,4.4,39.4,11.6,57.8c8.8,22.5,20.8,40.9,40.5,54.8c11.9,8.4,31.5,22.7,45.3,8.5c11.7-12,16.7-31.5,21-47        c6.2-22.8,9-47.1,13.9-70.2c2.3-10.8,5.4-22.8,12-32c11.4-15.7,31.5-13.7,48.8-14.5c39.1-1.7,79.8-0.5,119-2.3        c4.4-0.2,16.9,0.4,20.8-2.3c6.3-4.3,3.7-2.8,1.9-9.5c-1.6-6-12.1-13.3-15.8-18.1c-4-5.2-7.6-10.8-10.3-16.9        c-2.9,0.6-4.3,1-7.1,1.6c2.9,6.1,6.7,11.6,10.9,16.8c4.3,5.3,14.7,11.9,17.1,18.4c2.2,5.8,5.6,5.4,0,9.7        C312.6,129.4,301.1,129.1,297.3,129.3z"></path>
					</g>
				</g>
			</g>
		</g>
	</g>
	<g style="clip-path:url(#SVGID_00000178915490311784272800000008604200089538068907_);">
		<path class="st17" d="M513.4,83.6H260.5c-12.2,0-22.2-10-22.2-22.2v0c0-12.2,10-22.2,22.2-22.2h252.9c12.2,0,22.2,10,22.2,22.2v0    C535.6,73.6,525.6,83.6,513.4,83.6z"></path>
	</g>
	<g style="clip-path:url(#SVGID_00000178915490311784272800000008604200089538068907_);">
		<circle class="st18" cx="502.6" cy="59.1" r="9.5"></circle>
		<line class="st18" x1="517.1" y1="73.3" x2="509.4" y2="65.8"></line>
	</g>
</g>
</svg>
